<svg xmlns="http://www.w3.org/2000/svg" xmlns:xlink="http://www.w3.org/1999/xlink">
  <defs/>
  <g>
    <path stroke="none" fill="#BBBBBB" d="M133 2 L7 2 Q2 2 2 7 L2 183 Q2 188 7 188 L133 188 Q138 188 138 183 L138 7 Q138 2 133 2 M140 7 L140 183 Q140 190 133 190 L7 190 Q0 190 0 183 L0 7 Q0 0 7 0 L133 0 Q140 0 140 7"/>
    <path stroke="none" fill="#FFFFFF" d="M133 2 Q138 2 138 7 L138 183 Q138 188 133 188 L7 188 Q2 188 2 183 L2 7 Q2 2 7 2 L133 2 M133 7 L7 7 7 183 133 183 133 7"/>
    <path stroke="none" fill="#425F1E" d="M133 7 L133 183 7 183 7 7 133 7"/>
    <path stroke="none" fill="#BBBBBB" d="M283 2 L157 2 Q152 2 152 7 L152 183 Q152 188 157 188 L283 188 Q288 188 288 183 L288 7 Q288 2 283 2 M290 7 L290 183 Q290 190 283 190 L157 190 Q150 190 150 183 L150 7 Q150 0 157 0 L283 0 Q290 0 290 7"/>
    <path stroke="none" fill="#FFFFFF" d="M283 2 Q288 2 288 7 L288 183 Q288 188 283 188 L157 188 Q152 188 152 183 L152 7 Q152 2 157 2 L283 2 M283 7 L157 7 157 183 283 183 283 7"/>
    <path stroke="none" fill="#425F1E" d="M283 7 L283 183 157 183 157 7 283 7"/>
    <path stroke="none" fill="#000000" fill-opacity="0.2" d="M261.65 15.75 Q262.25 15.4 262.8 15.5 L262.9 15.5 264.05 15.75 Q265.35 16.1 265.65 17.35 266.15 18.95 265.2 20 264.3 21 264.4 21.25 264.65 21.7 265 21.6 L266 20.8 Q267.15 20.2 268.1 21 269.1 21.8 269.25 23.3 L269 25.15 Q268.2 27.1 266.5 27.1 265.35 27.2 264.65 26.2 L264.2 25.15 263.95 25.15 263.7 25.4 Q263.5 25.95 263.85 26.65 263.85 27 265 29.05 L260.75 29.05 261.9 26.65 Q262.25 26.1 262 25.4 261.75 24.8 261.55 25.15 261.1 27.2 259.25 27.1 257.65 27.1 256.7 25.15 L256.5 23.3 Q256.6 21.8 257.5 21 259 19.75 260.85 21.6 L261.2 21.25 260.5 20 Q259.6 18.95 260.05 17.35 260.4 16.1 261.65 15.75 M240.75 23.3 Q240.85 24.6 240.5 25.15 239.7 27.1 238.1 27.1 236.95 27.2 236.25 26.2 L235.8 25.15 235.55 25.15 235.35 25.4 Q235.1 25.95 235.35 26.65 L236.5 29.05 232.25 29.05 233.5 26.65 Q233.75 26.1 233.6 25.4 233.4 24.8 233.05 25.15 232.6 27.2 230.75 27.1 229.25 27.1 228.3 25.15 228 24.45 228.1 23.3 228.1 21.8 229.15 21 230.6 19.75 232.35 21.6 L232.8 21.25 Q232.9 21 232.1 20 231.1 18.95 231.55 17.35 232 16.1 233.25 15.75 233.85 15.4 234.3 15.5 L234.55 15.5 235.7 15.75 Q236.85 16.1 237.3 17.35 237.75 18.95 236.85 20 235.9 21 236 21.25 L236.5 21.6 237.65 20.8 Q238.8 20.2 239.7 21 240.75 21.8 240.75 23.3 M242.45 37.35 L245.45 34.1 248.1 31.25 250.75 34.1 253.7 37.35 Q255.1 39.2 254.4 40.8 253.4 42.75 250.95 42.5 L248.65 41.95 249.15 43.55 Q249.6 44.35 250.4 45.15 L245.7 45.15 247.05 43.55 247.5 41.95 245.2 42.5 Q242.8 42.75 241.9 40.8 241.1 39.2 242.45 37.35 M240.75 55.85 Q240.85 57 240.5 57.7 239.7 59.5 238.1 59.65 236.95 59.65 236.25 58.7 L235.8 57.7 Q235.7 57.55 235.55 57.7 L235.35 57.9 Q235.1 58.5 235.35 59.15 L236.5 61.45 232.25 61.45 233.5 59.15 Q233.75 58.6 233.6 57.9 233.4 57.2 233.05 57.7 232.6 59.75 230.75 59.65 229.25 59.5 228.3 57.7 228 57 228.1 55.85 228.1 54.35 229.15 53.55 230.6 52.15 232.35 54.1 L232.8 53.75 Q232.9 53.45 232.1 52.4 231.1 51.35 231.55 49.85 232 48.6 233.25 48.25 233.85 47.9 234.3 47.9 L234.55 47.9 235.7 48.25 Q236.85 48.6 237.3 49.85 237.75 51.35 236.85 52.4 235.9 53.45 236 53.75 L236.5 54.1 237.65 53.3 Q238.8 52.6 239.7 53.55 240.75 54.35 240.75 55.85 M248.1 63.75 L250.75 66.65 253.7 69.85 Q255.1 71.6 254.4 73.2 253.4 75.15 250.95 75.05 L248.65 74.45 249.15 76.05 250.4 77.7 245.7 77.7 247.05 76.05 247.5 74.45 245.2 75.05 Q242.8 75.15 241.9 73.2 241.1 71.6 242.45 69.85 L245.45 66.65 248.1 63.75 M174.75 17.35 Q175.1 16.1 176.4 15.75 L177.55 15.5 177.65 15.5 178.8 15.75 Q180.05 16.1 180.4 17.35 180.85 18.95 179.95 20 179 21 179.15 21.25 179.35 21.7 179.7 21.6 L180.75 20.8 Q181.9 20.2 182.8 21 183.85 21.8 183.95 23.3 L183.75 25.15 Q182.95 27.1 181.2 27.1 180.05 27.2 179.35 26.2 L178.9 25.15 178.7 25.15 178.45 25.4 Q178.2 25.95 178.55 26.65 178.55 27 179.7 29.05 L175.45 29.05 176.6 26.65 Q176.95 26.1 176.7 25.4 176.5 24.8 176.15 25.15 175.8 27.2 173.95 27.1 172.35 27.1 171.45 25.15 171.2 24.45 171.2 23.3 171.3 21.8 172.25 21 173.75 19.75 175.45 21.6 175.8 21.7 175.9 21.25 176.05 21 175.25 20 174.3 18.95 174.75 17.35 M206.05 15.5 L207.2 15.75 Q208.45 16.1 208.8 17.35 209.25 18.95 208.35 20 207.5 21 207.65 21.25 207.75 21.7 208.1 21.6 L209.25 20.8 Q210.4 20.2 211.3 21 212.25 21.8 212.35 23.3 L212.1 25.15 Q211.3 27.1 209.6 27.1 208.45 27.2 207.85 26.2 L207.4 25.15 207.05 25.15 206.85 25.4 Q206.7 25.95 206.95 26.65 L208.1 29.05 203.85 29.05 205.1 26.65 Q205.35 26.1 205.1 25.4 204.9 24.8 204.65 25.15 204.2 27.2 202.35 27.1 200.75 27.1 199.8 25.15 L199.6 23.3 Q199.7 21.8 200.65 21 202.1 19.75 203.95 21.6 204.2 21.7 204.4 21.25 204.55 21 203.6 20 202.7 18.95 203.15 17.35 203.5 16.1 204.9 15.75 L205.9 15.5 206.05 15.5 M256.7 57.7 L256.5 55.85 Q256.6 54.35 257.5 53.55 259 52.15 260.85 54.1 L261.2 53.75 Q261.3 53.45 260.5 52.4 259.6 51.35 260.05 49.85 260.4 48.6 261.65 48.25 262.25 47.9 262.8 47.9 L262.9 47.9 264.05 48.25 Q265.35 48.6 265.65 49.85 266.15 51.35 265.2 52.4 264.3 53.45 264.4 53.75 264.65 54.25 265 54.1 L266 53.3 Q267.15 52.6 268.1 53.55 269.1 54.35 269.25 55.85 L269 57.7 Q268.2 59.5 266.5 59.65 265.35 59.65 264.65 58.7 L264.2 57.7 Q264.05 57.55 263.95 57.7 L263.7 57.9 Q263.5 58.5 263.85 59.15 263.85 59.5 265 61.45 L260.75 61.45 261.9 59.15 Q262.25 58.6 262 57.9 261.75 57.2 261.55 57.7 261.1 59.75 259.25 59.65 257.65 59.5 256.7 57.7 M185.55 37.35 L188.65 34.1 191.2 31.25 193.95 34.1 196.85 37.35 Q198.2 39.2 197.5 40.8 196.6 42.75 194.1 42.5 L191.9 41.95 192.25 43.55 Q192.7 44.35 193.6 45.15 L188.9 45.15 Q189.8 44.35 190.15 43.55 L190.65 41.95 188.35 42.5 Q185.9 42.75 185 40.8 184.2 39.2 185.55 37.35 M177.55 47.9 L177.65 47.9 178.8 48.25 Q180.05 48.6 180.4 49.85 180.85 51.35 179.95 52.4 179 53.45 179.15 53.75 179.35 54.25 179.7 54.1 L180.75 53.3 Q181.9 52.6 182.8 53.55 183.85 54.35 183.95 55.85 L183.75 57.7 Q182.95 59.5 181.2 59.65 180.05 59.65 179.35 58.7 L178.9 57.7 Q178.8 57.55 178.7 57.7 L178.45 57.9 Q178.2 58.5 178.55 59.15 178.55 59.5 179.7 61.45 L175.45 61.45 176.6 59.15 Q176.95 58.6 176.7 57.9 176.5 57.2 176.15 57.7 175.8 59.75 173.95 59.65 172.35 59.5 171.45 57.7 171.2 57 171.2 55.85 171.3 54.35 172.25 53.55 173.75 52.15 175.45 54.1 L175.9 53.75 Q176.05 53.45 175.25 52.4 174.3 51.35 174.75 49.85 175.1 48.6 176.4 48.25 176.95 47.9 177.55 47.9 M191.2 63.75 L193.95 66.65 Q196.7 69.5 196.85 69.85 198.2 71.6 197.5 73.2 196.6 75.15 194.1 75.05 L191.9 74.45 192.25 76.05 193.6 77.7 188.9 77.7 190.15 76.05 190.65 74.45 188.35 75.05 Q185.9 75.15 185 73.2 184.2 71.6 185.55 69.85 L188.65 66.65 191.2 63.75 M225.35 37.35 Q226.7 39.2 225.9 40.8 225 42.75 222.6 42.5 L220.3 41.95 220.75 43.55 Q221.1 44.35 222 45.15 L217.3 45.15 Q218.2 44.35 218.55 43.55 L219 41.95 216.85 42.5 Q214.3 42.75 213.4 40.8 212.6 39.2 213.95 37.35 L217.05 34.1 219.6 31.25 222.35 34.1 225.35 37.35 M209.25 53.3 Q210.4 52.6 211.3 53.55 212.25 54.35 212.35 55.85 L212.1 57.7 Q211.3 59.5 209.6 59.65 208.45 59.65 207.85 58.7 L207.4 57.7 Q207.3 57.55 207.05 57.7 L206.85 57.9 Q206.7 58.5 206.95 59.15 L208.1 61.45 203.85 61.45 205.1 59.15 Q205.35 58.6 205.1 57.9 204.9 57.2 204.65 57.7 204.2 59.75 202.35 59.65 200.75 59.5 199.8 57.7 L199.6 55.85 Q199.7 54.35 200.65 53.55 202.1 52.15 203.95 54.1 L204.4 53.75 Q204.55 53.45 203.6 52.4 202.7 51.35 203.15 49.85 203.5 48.6 204.9 48.25 205.45 47.9 205.9 47.9 L206.05 47.9 207.2 48.25 Q208.45 48.6 208.8 49.85 209.25 51.35 208.35 52.4 207.5 53.45 207.65 53.75 207.75 54.25 208.1 54.1 L209.25 53.3 M222.35 66.65 L225.35 69.85 Q226.7 71.6 225.9 73.2 225 75.15 222.6 75.05 L220.3 74.45 220.75 76.05 222 77.7 217.3 77.7 218.55 76.05 219 74.45 216.85 75.05 Q214.3 75.15 213.4 73.2 212.6 71.6 213.95 69.85 L217.05 66.65 219.6 63.75 222.35 66.65 M228.3 90.1 Q228 89.5 228.1 88.35 228.1 86.85 229.15 85.95 230.6 84.7 232.35 86.55 L232.8 86.3 Q232.9 85.95 232.1 84.9 231.1 83.9 231.55 82.4 232 81.1 233.25 80.65 L234.3 80.45 234.55 80.45 235.7 80.65 Q236.85 81.1 237.3 82.4 237.75 83.9 236.85 84.9 235.9 85.95 236 86.3 236.25 86.65 236.5 86.55 L237.65 85.7 Q238.8 85.15 239.7 85.95 240.75 86.85 240.75 88.35 240.85 89.5 240.5 90.1 239.7 92.05 238.1 92.05 236.95 92.15 236.25 91.1 L235.8 90.1 Q235.7 89.95 235.55 90.1 L235.35 90.3 Q235.1 91 235.35 91.6 L236.5 94 232.25 94 233.5 91.6 Q233.75 91 233.6 90.3 233.4 89.75 233.05 90.1 232.6 92.25 230.75 92.05 229.25 92.05 228.3 90.1 M204.9 80.65 L205.9 80.45 206.05 80.45 207.2 80.65 Q208.45 81.1 208.8 82.4 209.25 83.9 208.35 84.9 207.5 85.95 207.65 86.3 207.75 86.65 208.1 86.55 L209.25 85.7 Q210.4 85.15 211.3 85.95 212.25 86.85 212.35 88.35 L212.1 90.1 Q211.3 92.05 209.6 92.05 208.45 92.15 207.85 91.1 L207.4 90.1 Q207.3 89.95 207.05 90.1 L206.85 90.3 Q206.7 91 206.95 91.6 L208.1 94 203.85 94 205.1 91.6 Q205.35 91 205.1 90.3 204.9 89.75 204.65 90.1 204.2 92.25 202.35 92.05 200.75 92.05 199.8 90.1 L199.6 88.35 Q199.7 86.85 200.65 85.95 202.1 84.7 203.95 86.55 L204.4 86.3 Q204.55 85.95 203.6 84.9 202.7 83.9 203.15 82.4 203.5 81.1 204.9 80.65 M217.05 99.05 L219.6 96.3 222.35 99.05 225.35 102.25 Q226.7 104.1 225.9 105.7 225 107.65 222.6 107.55 L220.3 106.85 220.75 108.5 Q221.1 109.3 222 110.2 L217.3 110.2 218.55 108.5 219 106.85 Q218 107.45 216.85 107.55 214.3 107.65 213.4 105.7 212.6 104.1 213.95 102.25 L217.05 99.05 M203.15 114.8 Q203.5 113.55 204.9 113.2 L205.9 112.95 206.05 112.95 207.2 113.2 Q208.45 113.55 208.8 114.8 209.25 116.4 208.35 117.45 207.5 118.35 207.65 118.7 207.75 119.15 208.1 119.05 L209.25 118.25 Q210.4 117.65 211.3 118.5 212.25 119.3 212.35 120.75 L212.1 122.6 Q211.3 124.55 209.6 124.55 208.45 124.55 207.85 123.65 L207.4 122.6 207.05 122.6 206.85 122.85 Q206.7 123.4 206.95 124.1 L208.1 126.5 203.85 126.5 205.1 124.1 Q205.35 123.55 205.1 122.85 204.9 122.25 204.65 122.6 204.2 124.7 202.35 124.55 200.75 124.55 199.8 122.6 L199.6 120.75 Q199.7 119.3 200.65 118.5 202.1 117.1 203.95 119.05 L204.4 118.7 Q204.55 118.35 203.6 117.45 202.7 116.4 203.15 114.8 M178.8 80.65 Q180.05 81.1 180.4 82.4 180.85 83.9 179.95 84.9 179 85.95 179.15 86.3 179.35 86.65 179.7 86.55 L180.75 85.7 Q181.9 85.15 182.8 85.95 183.85 86.85 183.95 88.35 L183.75 90.1 Q182.95 92.05 181.2 92.05 180.05 92.15 179.35 91.1 L178.9 90.1 Q178.8 89.95 178.7 90.1 L178.45 90.3 Q178.2 91 178.55 91.6 178.55 91.95 179.7 94 L175.45 94 176.6 91.6 Q176.95 91 176.7 90.3 176.5 89.75 176.15 90.1 175.8 92.25 173.95 92.05 172.35 92.05 171.45 90.1 171.2 89.5 171.2 88.35 171.3 86.85 172.25 85.95 173.75 84.7 175.45 86.55 175.8 86.65 175.9 86.3 176.05 85.95 175.25 84.9 174.3 83.9 174.75 82.4 175.1 81.1 176.4 80.65 L177.55 80.45 177.65 80.45 178.8 80.65 M235.7 113.2 Q236.85 113.55 237.3 114.8 237.75 116.4 236.85 117.45 235.9 118.35 236 118.7 L236.5 119.05 237.65 118.25 Q238.8 117.65 239.7 118.5 240.75 119.3 240.75 120.75 240.85 122.05 240.5 122.6 239.7 124.55 238.1 124.55 236.95 124.55 236.25 123.65 L235.8 122.6 235.55 122.6 235.35 122.85 Q235.1 123.4 235.35 124.1 L236.5 126.5 232.25 126.5 233.5 124.1 Q233.75 123.55 233.6 122.85 233.4 122.25 233.05 122.6 232.6 124.7 230.75 124.55 229.25 124.55 228.3 122.6 228 121.9 228.1 120.75 228.1 119.3 229.15 118.5 230.6 117.1 232.35 119.05 L232.8 118.7 Q232.9 118.35 232.1 117.45 231.1 116.4 231.55 114.8 232 113.55 233.25 113.2 233.85 112.85 234.3 112.95 L234.55 112.95 235.7 113.2 M174.75 114.8 Q175.1 113.55 176.4 113.2 L177.55 112.95 177.65 112.95 178.8 113.2 Q180.05 113.55 180.4 114.8 180.85 116.4 179.95 117.45 179 118.35 179.15 118.7 179.35 119.15 179.7 119.05 L180.75 118.25 Q181.9 117.65 182.8 118.5 183.85 119.3 183.95 120.75 L183.75 122.6 Q182.95 124.55 181.2 124.55 180.05 124.55 179.35 123.65 L178.9 122.6 178.7 122.6 178.45 122.85 Q178.2 123.4 178.55 124.1 178.55 124.45 179.7 126.5 L175.45 126.5 176.6 124.1 Q176.95 123.55 176.7 122.85 176.5 122.25 176.15 122.6 175.8 124.7 173.95 124.55 172.35 124.55 171.45 122.6 171.2 121.9 171.2 120.75 171.3 119.3 172.25 118.5 173.75 117.1 175.45 119.05 L175.9 118.7 Q176.05 118.35 175.25 117.45 174.3 116.4 174.75 114.8 M193.95 99.05 L196.85 102.25 Q198.2 104.1 197.5 105.7 196.6 107.65 194.1 107.55 L191.9 106.85 192.25 108.5 193.6 110.2 188.9 110.2 190.15 108.5 190.65 106.85 Q189.6 107.45 188.35 107.55 185.9 107.65 185 105.7 184.2 104.1 185.55 102.25 L188.65 99.05 191.2 96.3 193.95 99.05 M185 138.15 Q184.2 136.65 185.55 134.8 L188.65 131.6 191.2 128.7 193.95 131.6 Q196.7 134.45 196.85 134.8 198.2 136.65 197.5 138.15 196.6 140.1 194.1 139.95 L191.9 139.4 192.25 141 Q192.7 141.8 193.6 142.6 L188.9 142.6 Q189.8 141.8 190.15 141 L190.65 139.4 188.35 139.95 Q185.9 140.1 185 138.15 M177.55 145.35 L177.65 145.35 178.8 145.6 Q180.05 146.05 180.4 147.3 180.85 148.8 179.95 149.85 179 150.9 179.15 151.25 179.35 151.55 179.7 151.55 L180.75 150.75 Q181.9 150.1 182.8 151 183.85 151.8 183.95 153.3 L183.75 155 Q182.95 157 181.2 157.1 180.05 157.1 179.35 156.15 L178.9 155 178.7 155 Q178.55 155 178.45 155.35 178.2 155.95 178.55 156.65 178.55 157 179.7 158.95 L175.45 158.95 176.6 156.65 Q176.95 156.05 176.7 155.35 176.5 154.7 176.15 155 175.8 157.2 173.95 157.1 172.35 157 171.45 155 171.2 154.45 171.2 153.3 171.3 151.8 172.25 151 173.75 149.6 175.45 151.55 L175.9 151.25 Q176.05 150.9 175.25 149.85 174.3 148.8 174.75 147.3 175.1 146.05 176.4 145.6 L177.55 145.35 M191.2 161.15 L193.95 164.05 Q196.7 166.9 196.85 167.25 198.2 169.1 197.5 170.6 196.6 172.55 194.1 172.4 L191.9 171.85 192.25 173.45 Q192.7 174.25 193.6 175.05 L188.9 175.05 Q189.8 174.25 190.15 173.45 L190.65 171.85 188.35 172.4 Q185.9 172.55 185 170.6 184.2 169.1 185.55 167.25 L188.65 164.05 191.2 161.15 M225.9 138.15 Q225 140.1 222.6 139.95 L220.3 139.4 220.75 141 Q221.1 141.8 222 142.6 L217.3 142.6 Q218.2 141.8 218.55 141 L219 139.4 216.85 139.95 Q214.3 140.1 213.4 138.15 212.6 136.65 213.95 134.8 L217.05 131.6 219.6 128.7 222.35 131.6 225.35 134.8 Q226.7 136.65 225.9 138.15 M209.25 150.75 Q210.4 150.1 211.3 151 212.25 151.8 212.35 153.3 L212.1 155 Q211.3 157 209.6 157.1 208.45 157.1 207.85 156.15 L207.4 155 207.05 155 206.85 155.35 Q206.7 155.95 206.95 156.65 L208.1 158.95 203.85 158.95 205.1 156.65 Q205.35 156.05 205.1 155.35 204.9 154.7 204.65 155 204.2 157.2 202.35 157.1 200.75 157 199.8 155 L199.6 153.3 Q199.7 151.8 200.65 151 202.1 149.6 203.95 151.55 L204.4 151.25 Q204.55 150.9 203.6 149.85 202.7 148.8 203.15 147.3 203.5 146.05 204.9 145.6 L205.9 145.35 206.05 145.35 207.2 145.6 Q208.45 146.05 208.8 147.3 209.25 148.8 208.35 149.85 207.5 150.9 207.65 151.25 L208.1 151.55 209.25 150.75 M235.7 145.6 Q236.85 146.05 237.3 147.3 237.75 148.8 236.85 149.85 235.9 150.9 236 151.25 L236.5 151.55 237.65 150.75 Q238.8 150.1 239.7 151 240.75 151.8 240.75 153.3 240.85 154.45 240.5 155 239.7 157 238.1 157.1 236.95 157.1 236.25 156.15 L235.8 155 235.55 155 Q235.35 155 235.35 155.35 235.1 155.95 235.35 156.65 L236.5 158.95 232.25 158.95 233.5 156.65 Q233.75 156.05 233.6 155.35 233.4 154.7 233.05 155 232.6 157.2 230.75 157.1 229.25 157 228.3 155 228 154.45 228.1 153.3 228.1 151.8 229.15 151 230.6 149.6 232.35 151.55 L232.8 151.25 Q232.9 150.9 232.1 149.85 231.1 148.8 231.55 147.3 232 146.05 233.25 145.6 L234.3 145.35 234.55 145.35 235.7 145.6 M222.35 164.05 L225.35 167.25 Q226.7 169.1 225.9 170.6 225 172.55 222.6 172.4 L220.3 171.85 220.75 173.45 Q221.1 174.25 222 175.05 L217.3 175.05 Q218.2 174.25 218.55 173.45 L219 171.85 216.85 172.4 Q214.3 172.55 213.4 170.6 212.6 169.1 213.95 167.25 L217.05 164.05 219.6 161.15 222.35 164.05 M265.65 82.4 Q266.15 83.9 265.2 84.9 264.3 85.95 264.4 86.3 L265 86.55 266 85.7 Q267.15 85.15 268.1 85.95 269.1 86.85 269.25 88.35 L269 90.1 Q268.2 92.05 266.5 92.05 265.35 92.15 264.65 91.1 L264.2 90.1 Q264.05 89.95 263.95 90.1 L263.7 90.3 Q263.5 91 263.85 91.6 263.85 91.95 265 94 L260.75 94 261.9 91.6 Q262.25 91 262 90.3 261.75 89.75 261.55 90.1 261.1 92.25 259.25 92.05 257.65 92.05 256.7 90.1 L256.5 88.35 Q256.6 86.85 257.5 85.95 259 84.7 260.85 86.55 L261.2 86.3 Q261.3 85.95 260.5 84.9 259.6 83.9 260.05 82.4 260.4 81.1 261.65 80.65 L262.8 80.45 262.9 80.45 264.05 80.65 Q265.35 81.1 265.65 82.4 M253.7 102.25 Q255.1 104.1 254.4 105.7 253.4 107.65 250.95 107.55 L248.65 106.85 249.15 108.5 250.4 110.2 245.7 110.2 247.05 108.5 247.5 106.85 Q246.5 107.45 245.2 107.55 242.8 107.65 241.9 105.7 241.1 104.1 242.45 102.25 L245.45 99.05 248.1 96.3 250.75 99.05 253.7 102.25 M262.9 112.95 L264.05 113.2 Q265.35 113.55 265.65 114.8 266.15 116.4 265.2 117.45 264.3 118.35 264.4 118.7 264.65 119.15 265 119.05 L266 118.25 Q267.15 117.65 268.1 118.5 269.1 119.3 269.25 120.75 L269 122.6 Q268.2 124.55 266.5 124.55 265.35 124.55 264.65 123.65 L264.2 122.6 263.95 122.6 263.7 122.85 Q263.5 123.4 263.85 124.1 263.85 124.45 265 126.5 L260.75 126.5 261.9 124.1 Q262.25 123.55 262 122.85 261.75 122.25 261.55 122.6 261.1 124.7 259.25 124.55 257.65 124.55 256.7 122.6 L256.5 120.75 Q256.6 119.3 257.5 118.5 259 117.1 260.85 119.05 L261.2 118.7 Q261.3 118.35 260.5 117.45 259.6 116.4 260.05 114.8 260.4 113.55 261.65 113.2 262.25 112.85 262.8 112.95 L262.9 112.95 M242.45 134.8 L245.45 131.6 248.1 128.7 250.75 131.6 253.7 134.8 Q255.1 136.65 254.4 138.15 253.4 140.1 250.95 139.95 L248.65 139.4 249.15 141 Q249.6 141.8 250.4 142.6 L245.7 142.6 247.05 141 247.5 139.4 245.2 139.95 Q242.8 140.1 241.9 138.15 241.1 136.65 242.45 134.8 M256.5 153.3 Q256.6 151.8 257.5 151 259 149.6 260.85 151.55 L261.2 151.25 Q261.3 150.9 260.5 149.85 259.6 148.8 260.05 147.3 260.4 146.05 261.65 145.6 L262.8 145.35 262.9 145.35 264.05 145.6 Q265.35 146.05 265.65 147.3 266.15 148.8 265.2 149.85 264.3 150.9 264.4 151.25 264.65 151.55 265 151.55 L266 150.75 Q267.15 150.1 268.1 151 269.1 151.8 269.25 153.3 L269 155 Q268.2 157 266.5 157.1 265.35 157.1 264.65 156.15 L264.2 155 263.95 155 Q263.85 155 263.7 155.35 263.5 155.95 263.85 156.65 263.85 157 265 158.95 L260.75 158.95 261.9 156.65 Q262.25 156.05 262 155.35 261.75 154.7 261.55 155 261.1 157.2 259.25 157.1 257.65 157 256.7 155 L256.5 153.3 M248.1 161.15 L250.75 164.05 253.7 167.25 Q255.1 169.1 254.4 170.6 253.4 172.55 250.95 172.4 L248.65 171.85 249.15 173.45 Q249.6 174.25 250.4 175.05 L245.7 175.05 247.05 173.45 247.5 171.85 245.2 172.4 Q242.8 172.55 241.9 170.6 241.1 169.1 242.45 167.25 L245.45 164.05 248.1 161.15"/>
    <path stroke="none" fill="#FFFFFF" fill-opacity="0.10196078431372549" d="M268.8 36.85 L267.15 39.05 Q263.35 42.85 262.45 44.9 261.4 42.85 257.65 39.05 256.8 38.15 256.15 36.85 255.45 35.7 255.45 34.7 255.45 33.3 256.25 32.25 257.3 31 258.9 31 260.5 31 261.55 32.25 262.35 33.2 262.45 34.45 262.45 33.2 263.25 32.25 264.3 31 265.9 31 267.5 31 268.55 32.25 269.35 33.3 269.35 34.7 269.35 35.7 268.8 36.85 M242.8 22.05 L248.1 15.15 253.4 22.05 248.1 28.95 242.8 22.05 M240.3 36.85 L238.8 39.05 Q235 42.85 233.95 44.9 232.9 42.85 229.25 39.05 228.3 38.15 227.65 36.85 226.95 35.7 226.95 34.7 226.95 33.3 227.85 32.25 228.9 31 230.5 31 232.1 31 233.15 32.25 233.95 33.2 233.95 34.45 234.05 33.2 234.85 32.25 235.8 31 237.4 31 239 31 240.05 32.25 240.95 33.3 240.95 34.7 240.95 35.7 240.3 36.85 M248.1 47.55 L253.4 54.45 248.1 61.45 242.8 54.45 248.1 47.55 M258.9 63.5 Q260.5 63.5 261.55 64.65 262.35 65.7 262.45 66.95 262.45 65.7 263.25 64.65 264.3 63.5 265.9 63.5 267.5 63.5 268.55 64.8 269.35 65.8 269.35 67.1 269.35 68.1 268.8 69.4 L267.15 71.55 Q263.35 75.35 262.45 77.45 261.4 75.35 257.65 71.55 L256.15 69.4 Q255.45 68.1 255.45 67.1 255.45 65.8 256.25 64.8 257.3 63.5 258.9 63.5 M191.2 28.95 L185.9 22.05 191.2 15.15 196.6 22.05 191.2 28.95 M181.9 39.05 Q178.1 42.85 177.2 44.9 176.15 42.85 172.35 39.05 171.55 38.15 170.85 36.85 170.05 35.7 170.05 34.7 170.05 33.3 171 32.25 172 31 173.6 31 175.25 31 176.25 32.25 177.05 33.2 177.2 34.45 177.2 33.2 178 32.25 179 31 180.65 31 182.25 31 183.25 32.25 184.1 33.3 184.1 34.7 184.1 35.7 183.5 36.85 182.8 38.15 181.9 39.05 M177.2 66.95 Q177.2 65.7 178 64.65 179 63.5 180.65 63.5 182.25 63.5 183.25 64.8 184.1 65.8 184.1 67.1 184.1 68.1 183.5 69.4 L181.9 71.55 Q178.1 75.35 177.2 77.45 176.15 75.35 172.35 71.55 171.55 70.65 170.85 69.4 170.05 68.1 170.05 67.1 170.05 65.8 171 64.8 172 63.5 173.6 63.5 175.25 63.5 176.25 64.65 177.05 65.7 177.2 66.95 M196.6 54.45 L191.2 61.45 185.9 54.45 191.2 47.55 196.6 54.45 M219.7 28.95 L214.3 22.05 219.7 15.15 225 22.05 219.7 28.95 M199.25 36.85 Q198.55 35.7 198.55 34.7 198.55 33.3 199.5 32.25 200.4 31 202.1 31 203.75 31 204.65 32.25 205.45 33.2 205.55 34.45 205.55 33.2 206.5 32.25 207.4 31 209 31 210.65 31 211.65 32.25 212.6 33.3 212.6 34.7 212.6 35.7 211.9 36.85 211.2 38.15 210.3 39.05 206.6 42.85 205.55 44.9 204.55 42.85 200.75 39.05 199.95 38.15 199.25 36.85 M202.1 63.5 Q203.75 63.5 204.65 64.65 205.45 65.7 205.55 66.95 205.55 65.7 206.5 64.65 207.4 63.5 209 63.5 210.65 63.5 211.65 64.8 212.6 65.8 212.6 67.1 212.6 68.1 211.9 69.4 L210.3 71.55 Q206.6 75.35 205.55 77.45 204.55 75.35 200.75 71.55 L199.25 69.4 Q198.55 68.1 198.55 67.1 198.55 65.8 199.5 64.8 200.4 63.5 202.1 63.5 M225 54.45 L219.7 61.45 214.3 54.45 219.7 47.55 225 54.45 M233.15 64.65 Q233.95 65.7 233.95 66.95 234.05 65.7 234.85 64.65 235.8 63.5 237.4 63.5 239 63.5 240.05 64.8 240.95 65.8 240.95 67.1 240.95 68.1 240.3 69.4 L238.8 71.55 Q235 75.35 233.95 77.45 232.9 75.35 229.25 71.55 228.3 70.65 227.65 69.4 226.95 68.1 226.95 67.1 226.95 65.8 227.85 64.8 228.9 63.5 230.5 63.5 232.1 63.5 233.15 64.65 M225 86.95 L219.7 93.85 214.3 86.95 219.7 80.05 225 86.95 M211.65 97.2 Q212.6 98.25 212.6 99.6 212.6 100.65 211.9 101.9 L210.3 103.95 Q206.6 107.9 205.55 109.95 204.55 107.9 200.75 103.95 L199.25 101.9 Q198.55 100.65 198.55 99.6 198.55 98.25 199.5 97.2 200.4 96.05 202.1 96.05 203.75 96.05 204.65 97.2 205.45 98.1 205.55 99.5 205.55 98.1 206.5 97.2 207.4 96.05 209 96.05 210.65 96.05 211.65 97.2 M234.85 97.2 Q235.8 96.05 237.4 96.05 239 96.05 240.05 97.2 240.95 98.25 240.95 99.6 240.95 100.65 240.3 101.9 L238.8 103.95 Q235 107.9 233.95 109.95 232.9 107.9 229.25 103.95 L227.65 101.9 Q226.95 100.65 226.95 99.6 226.95 98.25 227.85 97.2 228.9 96.05 230.5 96.05 232.1 96.05 233.15 97.2 233.95 98.1 233.95 99.5 234.05 98.1 234.85 97.2 M196.6 86.95 L191.2 93.85 185.9 86.95 191.2 80.05 196.6 86.95 M178 97.2 Q179 96.05 180.65 96.05 182.25 96.05 183.25 97.2 184.1 98.25 184.1 99.6 184.1 100.65 183.5 101.9 L181.9 103.95 Q178.1 107.9 177.2 109.95 176.15 107.9 172.35 103.95 L170.85 101.9 Q170.05 100.65 170.05 99.6 170.05 98.25 171 97.2 172 96.05 173.6 96.05 175.25 96.05 176.25 97.2 177.05 98.1 177.2 99.5 177.2 98.1 178 97.2 M191.2 126.4 L185.9 119.5 191.2 112.6 196.6 119.5 191.2 126.4 M184.1 132.15 Q184.1 133.05 183.5 134.3 182.8 135.6 181.9 136.5 178.1 140.3 177.2 142.35 176.15 140.3 172.35 136.5 171.55 135.6 170.85 134.3 170.05 133.05 170.05 132.15 170.05 130.75 171 129.7 172 128.45 173.6 128.45 175.25 128.45 176.25 129.7 177.05 130.65 177.2 131.9 177.2 130.65 178 129.7 179 128.45 180.65 128.45 182.25 128.45 183.25 129.7 184.1 130.75 184.1 132.15 M171 162.15 Q172 160.9 173.6 160.9 175.25 160.9 176.25 162.15 177.05 163.1 177.2 164.35 177.2 163.1 178 162.15 179 160.9 180.65 160.9 182.25 160.9 183.25 162.15 184.1 163.2 184.1 164.6 184.1 165.5 183.5 166.75 182.8 168.05 181.9 168.95 178.1 172.75 177.2 174.8 176.15 172.75 172.35 168.95 171.55 168.05 170.85 166.75 170.05 165.5 170.05 164.6 170.05 163.2 171 162.15 M196.6 151.9 L191.2 158.9 185.9 151.9 191.2 145 196.6 151.9 M219.7 126.4 L214.3 119.5 219.7 112.6 225 119.5 219.7 126.4 M227.85 129.7 Q228.9 128.45 230.5 128.45 232.1 128.45 233.15 129.7 233.95 130.65 233.95 131.9 234.05 130.65 234.85 129.7 235.8 128.45 237.4 128.45 239 128.45 240.05 129.7 240.95 130.75 240.95 132.15 L240.3 134.3 238.8 136.5 Q235 140.3 233.95 142.35 232.9 140.3 229.25 136.5 228.3 135.6 227.65 134.3 226.95 133.05 226.95 132.15 226.95 130.75 227.85 129.7 M199.5 129.7 Q200.4 128.45 202.1 128.45 203.75 128.45 204.65 129.7 205.45 130.65 205.55 131.9 205.55 130.65 206.5 129.7 207.4 128.45 209 128.45 210.65 128.45 211.65 129.7 212.6 130.75 212.6 132.15 212.6 133.05 211.9 134.3 211.2 135.6 210.3 136.5 206.6 140.3 205.55 142.35 204.55 140.3 200.75 136.5 199.95 135.6 199.25 134.3 198.55 133.05 198.55 132.15 198.55 130.75 199.5 129.7 M202.1 160.9 Q203.75 160.9 204.65 162.15 205.45 163.1 205.55 164.35 205.55 163.1 206.5 162.15 207.4 160.9 209 160.9 210.65 160.9 211.65 162.15 212.6 163.2 212.6 164.6 212.6 165.5 211.9 166.75 211.2 168.05 210.3 168.95 206.6 172.75 205.55 174.8 204.55 172.75 200.75 168.95 199.95 168.05 199.25 166.75 198.55 165.5 198.55 164.6 198.55 163.2 199.5 162.15 200.4 160.9 202.1 160.9 M225 151.9 L219.7 158.9 214.3 151.9 219.7 145 225 151.9 M227.85 162.15 Q228.9 160.9 230.5 160.9 232.1 160.9 233.15 162.15 233.95 163.1 233.95 164.35 234.05 163.1 234.85 162.15 235.8 160.9 237.4 160.9 239 160.9 240.05 162.15 240.95 163.2 240.95 164.6 L240.3 166.75 238.8 168.95 Q235 172.75 233.95 174.8 232.9 172.75 229.25 168.95 228.3 168.05 227.65 166.75 226.95 165.5 226.95 164.6 226.95 163.2 227.85 162.15 M248.1 80.05 L253.4 86.95 248.1 93.85 242.8 86.95 248.1 80.05 M256.25 97.2 Q257.3 96.05 258.9 96.05 260.5 96.05 261.55 97.2 262.35 98.1 262.45 99.5 262.45 98.1 263.25 97.2 264.3 96.05 265.9 96.05 267.5 96.05 268.55 97.2 269.35 98.25 269.35 99.6 269.35 100.65 268.8 101.9 L267.15 103.95 Q263.35 107.9 262.45 109.95 261.4 107.9 257.65 103.95 L256.15 101.9 Q255.45 100.65 255.45 99.6 255.45 98.25 256.25 97.2 M268.8 134.3 L267.15 136.5 Q263.35 140.3 262.45 142.35 261.4 140.3 257.65 136.5 256.8 135.6 256.15 134.3 255.45 133.05 255.45 132.15 255.45 130.75 256.25 129.7 257.3 128.45 258.9 128.45 260.5 128.45 261.55 129.7 262.35 130.65 262.45 131.9 262.45 130.65 263.25 129.7 264.3 128.45 265.9 128.45 267.5 128.45 268.55 129.7 269.35 130.75 269.35 132.15 269.35 133.05 268.8 134.3 M242.8 119.5 L248.1 112.6 253.4 119.5 248.1 126.4 242.8 119.5 M248.1 145 L253.4 151.9 248.1 158.9 242.8 151.9 248.1 145 M256.25 162.15 Q257.3 160.9 258.9 160.9 260.5 160.9 261.55 162.15 262.35 163.1 262.45 164.35 262.45 163.1 263.25 162.15 264.3 160.9 265.9 160.9 267.5 160.9 268.55 162.15 269.35 163.2 269.35 164.6 269.35 165.5 268.8 166.75 L267.15 168.95 Q263.35 172.75 262.45 174.8 261.4 172.75 257.65 168.95 256.8 168.05 256.15 166.75 255.45 165.5 255.45 164.6 255.45 163.2 256.25 162.15"/>
    <path stroke="none" fill="#BBBBBB" d="M433 2 L307 2 Q302 2 302 7 L302 183 Q302 188 307 188 L433 188 Q438 188 438 183 L438 7 Q438 2 433 2 M440 7 L440 183 Q440 190 433 190 L307 190 Q300 190 300 183 L300 7 Q300 0 307 0 L433 0 Q440 0 440 7"/>
    <path stroke="none" fill="#FFFFFF" d="M433 2 Q438 2 438 7 L438 183 Q438 188 433 188 L307 188 Q302 188 302 183 L302 7 Q302 2 307 2 L433 2 M433 183 L433 7 307 7 307 183 433 183"/>
    <path stroke="none" fill="#425F1E" d="M433 183 L307 183 307 7 433 7 433 183"/>
    <path stroke="none" fill="#000000" fill-opacity="0.2" d="M357.55 66.8 L357.75 66.8 359.95 67.3 Q362.4 68 363.05 70.4 363.95 73.5 362.2 75.5 360.35 77.45 360.65 77.95 361.05 78.8 361.7 78.6 362 78.6 363.75 77.05 365.95 75.9 367.7 77.45 369.75 79 369.9 81.9 369.9 84.4 369.55 85.45 368 89.25 364.6 89.25 362.4 89.45 361.05 87.5 L360.15 85.45 Q359.95 85.3 359.75 85.45 359.5 85.45 359.3 85.95 358.8 87 359.5 88.35 359.5 89.05 361.7 93 L353.5 93 355.7 88.35 Q356.4 87.3 355.9 85.95 355.5 84.8 354.85 85.45 354.15 89.45 350.6 89.25 347.5 89.25 345.75 85.45 345.25 84.1 345.25 81.9 345.45 79 347.3 77.45 350.2 75.05 353.5 78.6 354.15 78.8 354.35 77.95 354.65 77.45 353.1 75.5 351.25 73.5 352.15 70.4 352.8 68 355.3 67.3 356.4 66.6 357.55 66.8 M379 102.8 L383.95 97.25 389.25 102.8 394.85 109.05 Q397.45 112.65 396.1 115.75 394.4 119.5 389.55 119 L385.3 117.95 385.95 121.05 Q386.85 122.6 388.6 124.15 L379.5 124.15 Q381.25 122.6 381.9 121.05 L382.85 117.95 Q380.85 118.8 378.45 119 373.7 119.5 371.95 115.75 370.4 112.65 373 109.05 L379 102.8"/>
    <path stroke="none" fill="#FFFFFF" fill-opacity="0.10196078431372549" d="M365.95 112.35 Q358.6 119.7 356.85 123.65 354.85 119.7 347.5 112.35 345.95 110.6 344.6 108.1 343.05 105.85 343.05 103.95 343.05 101.25 344.9 99.2 346.8 96.8 349.9 96.8 353.1 96.8 355.05 99.2 356.6 101.05 356.85 103.45 356.85 101.05 358.4 99.2 360.35 96.8 363.55 96.8 366.65 96.8 368.55 99.2 370.2 101.25 370.2 103.95 370.2 105.85 369.05 108.1 367.7 110.6 365.95 112.35 M383.95 92.8 L373.7 79.5 383.95 66.15 394.4 79.5 383.95 92.8"/>
    <path stroke="none" fill="#BBBBBB" d="M583 2 L457 2 Q452 2 452 7 L452 183 Q452 188 457 188 L583 188 Q588 188 588 183 L588 7 Q588 2 583 2 M590 7 L590 183 Q590 190 583 190 L457 190 Q450 190 450 183 L450 7 Q450 0 457 0 L583 0 Q590 0 590 7"/>
    <path stroke="none" fill="#FFFFFF" d="M583 2 Q588 2 588 7 L588 183 Q588 188 583 188 L457 188 Q452 188 452 183 L452 7 Q452 2 457 2 L583 2 M583 7 L457 7 457 183 583 183 583 7"/>
    <path stroke="none" fill="#A03232" d="M583 7 L583 183 457 183 457 7 583 7"/>
    <path stroke="none" fill="#BBBBBB" d="M602 7 L602 183 Q602 188 607 188 L733 188 Q738 188 738 183 L738 7 Q738 2 733 2 L607 2 Q602 2 602 7 M607 0 L733 0 Q740 0 740 7 L740 183 Q740 190 733 190 L607 190 Q600 190 600 183 L600 7 Q600 0 607 0"/>
    <path stroke="none" fill="#FFFFFF" d="M602 7 Q602 2 607 2 L733 2 Q738 2 738 7 L738 183 Q738 188 733 188 L607 188 Q602 188 602 183 L602 7 M607 7 L607 183 733 183 733 7 607 7"/>
    <path stroke="none" fill="#A03232" d="M607 7 L733 7 733 183 607 183 607 7"/>
    <path stroke="none" fill="#000000" fill-opacity="0.2" d="M628.8 15.75 Q630.05 16.1 630.4 17.35 630.85 18.95 629.95 20 629 21 629.15 21.25 629.35 21.7 629.7 21.6 L630.75 20.8 Q631.9 20.2 632.8 21 633.85 21.8 633.95 23.3 L633.75 25.15 Q632.95 27.1 631.2 27.1 630.05 27.2 629.35 26.2 L628.9 25.15 628.7 25.15 628.45 25.4 Q628.2 25.95 628.55 26.65 628.55 27 629.7 29.05 L625.45 29.05 626.6 26.65 Q626.95 26.1 626.7 25.4 626.5 24.8 626.15 25.15 625.8 27.2 623.95 27.1 622.35 27.1 621.45 25.15 621.2 24.45 621.2 23.3 621.3 21.8 622.25 21 623.75 19.75 625.45 21.6 625.8 21.7 625.9 21.25 626.05 21 625.25 20 624.3 18.95 624.75 17.35 625.1 16.1 626.4 15.75 L627.55 15.5 627.65 15.5 628.8 15.75 M638.65 34.1 L641.2 31.25 643.95 34.1 646.85 37.35 Q648.2 39.2 647.5 40.8 646.6 42.75 644.1 42.5 L641.9 41.95 642.25 43.55 Q642.7 44.35 643.6 45.15 L638.9 45.15 640.15 43.55 640.65 41.95 638.35 42.5 Q635.9 42.75 635 40.8 634.2 39.2 635.55 37.35 L638.65 34.1 M621.2 55.85 Q621.3 54.35 622.25 53.55 623.75 52.15 625.45 54.1 625.8 54.1 625.9 53.75 626.05 53.45 625.25 52.4 624.3 51.35 624.75 49.85 625.1 48.6 626.4 48.25 626.95 47.9 627.55 47.9 L627.65 47.9 628.8 48.25 Q630.05 48.6 630.4 49.85 630.85 51.35 629.95 52.4 629 53.45 629.15 53.75 629.35 54.25 629.7 54.1 L630.75 53.3 Q631.9 52.6 632.8 53.55 633.85 54.35 633.95 55.85 L633.75 57.7 Q632.95 59.5 631.2 59.65 630.05 59.65 629.35 58.7 L628.9 57.7 Q628.8 57.55 628.7 57.7 L628.45 57.9 Q628.2 58.5 628.55 59.15 628.55 59.5 629.7 61.45 L625.45 61.45 626.6 59.15 Q626.95 58.6 626.7 57.9 626.5 57.2 626.15 57.7 625.8 59.75 623.95 59.65 622.35 59.5 621.45 57.7 621.2 57 621.2 55.85 M641.2 63.75 L643.95 66.65 646.85 69.85 Q648.2 71.6 647.5 73.2 646.6 75.15 644.1 75.05 L641.9 74.45 642.25 76.05 643.6 77.7 638.9 77.7 640.15 76.05 640.65 74.45 638.35 75.05 Q635.9 75.15 635 73.2 634.2 71.6 635.55 69.85 L638.65 66.65 641.2 63.75 M630.4 82.4 Q630.85 83.9 629.95 84.9 629 85.95 629.15 86.3 629.35 86.65 629.7 86.55 L630.75 85.7 Q631.9 85.15 632.8 85.95 633.85 86.85 633.95 88.35 L633.75 90.1 Q632.95 92.05 631.2 92.05 630.05 92.15 629.35 91.1 L628.9 90.1 Q628.8 89.95 628.7 90.1 L628.45 90.3 Q628.2 91 628.55 91.6 628.55 91.95 629.7 94 L625.45 94 626.6 91.6 Q626.95 91 626.7 90.3 626.5 89.75 626.15 90.1 625.8 92.25 623.95 92.05 622.35 92.05 621.45 90.1 621.2 89.5 621.2 88.35 621.3 86.85 622.25 85.95 623.75 84.7 625.45 86.55 625.8 86.65 625.9 86.3 626.05 85.95 625.25 84.9 624.3 83.9 624.75 82.4 625.1 81.1 626.4 80.65 L627.55 80.45 627.65 80.45 628.8 80.65 Q630.05 81.1 630.4 82.4 M643.95 99.05 L646.85 102.25 Q648.2 104.1 647.5 105.7 646.6 107.65 644.1 107.55 L641.9 106.85 642.25 108.5 643.6 110.2 638.9 110.2 640.15 108.5 640.65 106.85 638.35 107.55 Q635.9 107.65 635 105.7 634.2 104.1 635.55 102.25 L638.65 99.05 641.2 96.3 643.95 99.05 M627.65 112.95 L628.8 113.2 Q630.05 113.55 630.4 114.8 630.85 116.4 629.95 117.45 629 118.35 629.15 118.7 629.35 119.15 629.7 119.05 L630.75 118.25 Q631.9 117.65 632.8 118.5 633.85 119.3 633.95 120.75 L633.75 122.6 Q632.95 124.55 631.2 124.55 630.05 124.55 629.35 123.65 L628.9 122.6 628.7 122.6 628.45 122.85 Q628.2 123.4 628.55 124.1 628.55 124.45 629.7 126.5 L625.45 126.5 626.6 124.1 Q626.95 123.55 626.7 122.85 626.5 122.25 626.15 122.6 625.8 124.7 623.95 124.55 622.35 124.55 621.45 122.6 621.2 121.9 621.2 120.75 621.3 119.3 622.25 118.5 623.75 117.1 625.45 119.05 625.8 119.05 625.9 118.7 626.05 118.35 625.25 117.45 624.3 116.4 624.75 114.8 625.1 113.55 626.4 113.2 L627.55 112.95 627.65 112.95 M638.65 131.6 L641.2 128.7 643.95 131.6 646.85 134.8 Q648.2 136.65 647.5 138.15 646.6 140.1 644.1 139.95 L641.9 139.4 642.25 141 Q642.7 141.8 643.6 142.6 L638.9 142.6 640.15 141 640.65 139.4 638.35 139.95 Q635.9 140.1 635 138.15 634.2 136.65 635.55 134.8 L638.65 131.6 M621.45 155 Q621.2 154.45 621.2 153.3 621.3 151.8 622.25 151 623.75 149.6 625.45 151.55 L625.9 151.25 Q626.05 150.9 625.25 149.85 624.3 148.8 624.75 147.3 625.1 146.05 626.4 145.6 L627.55 145.35 627.65 145.35 628.8 145.6 Q630.05 146.05 630.4 147.3 630.85 148.8 629.95 149.85 629 150.9 629.15 151.25 629.35 151.55 629.7 151.55 L630.75 150.75 Q631.9 150.1 632.8 151 633.85 151.8 633.95 153.3 L633.75 155 Q632.95 157 631.2 157.1 630.05 157.1 629.35 156.15 L628.9 155 628.7 155 Q628.55 155 628.45 155.35 628.2 155.95 628.55 156.65 628.55 157 629.7 158.95 L625.45 158.95 626.6 156.65 Q626.95 156.05 626.7 155.35 626.5 154.7 626.15 155 625.8 157.2 623.95 157.1 622.35 157 621.45 155 M641.2 161.15 L643.95 164.05 646.85 167.25 Q648.2 169.1 647.5 170.6 646.6 172.55 644.1 172.4 L641.9 171.85 642.25 173.45 Q642.7 174.25 643.6 175.05 L638.9 175.05 640.15 173.45 640.65 171.85 638.35 172.4 Q635.9 172.55 635 170.6 634.2 169.1 635.55 167.25 L638.65 164.05 641.2 161.15 M657.2 15.75 Q658.45 16.1 658.8 17.35 659.25 18.95 658.35 20 657.5 21 657.65 21.25 657.75 21.7 658.1 21.6 L659.25 20.8 Q660.4 20.2 661.3 21 662.25 21.8 662.35 23.3 L662.1 25.15 Q661.3 27.1 659.6 27.1 658.45 27.2 657.85 26.2 L657.4 25.15 657.05 25.15 656.85 25.4 Q656.7 25.95 656.95 26.65 L658.1 29.05 653.85 29.05 655.1 26.65 Q655.35 26.1 655.1 25.4 654.9 24.8 654.65 25.15 654.2 27.2 652.35 27.1 650.75 27.1 649.8 25.15 L649.6 23.3 Q649.7 21.8 650.65 21 652.1 19.75 653.95 21.6 L654.4 21.25 Q654.55 21 653.6 20 652.7 18.95 653.15 17.35 653.5 16.1 654.9 15.75 L655.9 15.5 656.05 15.5 657.2 15.75 M710.05 17.35 Q710.4 16.1 711.65 15.75 L712.8 15.5 712.9 15.5 714.05 15.75 Q715.35 16.1 715.65 17.35 716.15 18.95 715.2 20 714.3 21 714.4 21.25 714.65 21.7 715 21.6 L716 20.8 Q717.15 20.2 718.1 21 719.1 21.8 719.25 23.3 L719 25.15 Q718.2 27.1 716.5 27.1 715.35 27.2 714.65 26.2 L714.2 25.15 713.95 25.15 713.7 25.4 Q713.5 25.95 713.85 26.65 713.85 27 715 29.05 L710.75 29.05 711.9 26.65 Q712.25 26.1 712 25.4 711.75 24.8 711.55 25.15 711.1 27.2 709.25 27.1 707.65 27.1 706.7 25.15 L706.5 23.3 Q706.6 21.8 707.5 21 709 19.75 710.85 21.6 L711.2 21.25 710.5 20 Q709.6 18.95 710.05 17.35 M684.55 15.5 L685.7 15.75 Q686.85 16.1 687.3 17.35 687.75 18.95 686.85 20 685.9 21 686 21.25 686.25 21.7 686.5 21.6 L687.65 20.8 Q688.8 20.2 689.7 21 690.75 21.8 690.75 23.3 690.85 24.6 690.5 25.15 689.7 27.1 688.1 27.1 686.95 27.2 686.25 26.2 L685.8 25.15 685.55 25.15 685.35 25.4 Q685.1 25.95 685.35 26.65 L686.5 29.05 682.25 29.05 683.5 26.65 Q683.75 26.1 683.6 25.4 683.4 24.8 683.05 25.15 682.6 27.2 680.75 27.1 679.25 27.1 678.3 25.15 678 24.45 678.1 23.3 678.1 21.8 679.15 21 680.6 19.75 682.35 21.6 L682.8 21.25 682.1 20 Q681.1 18.95 681.55 17.35 682 16.1 683.25 15.75 683.85 15.4 684.3 15.5 L684.55 15.5 M669.6 31.25 L672.35 34.1 675.35 37.35 Q676.7 39.2 675.9 40.8 675 42.75 672.6 42.5 L670.3 41.95 670.75 43.55 Q671.1 44.35 672 45.15 L667.3 45.15 Q668.2 44.35 668.55 43.55 L669 41.95 666.85 42.5 Q664.3 42.75 663.4 40.8 662.6 39.2 663.95 37.35 L667.05 34.1 669.6 31.25 M654.9 48.25 Q655.45 47.9 655.9 47.9 L656.05 47.9 657.2 48.25 Q658.45 48.6 658.8 49.85 659.25 51.35 658.35 52.4 657.5 53.45 657.65 53.75 657.75 54.25 658.1 54.1 L659.25 53.3 Q660.4 52.6 661.3 53.55 662.25 54.35 662.35 55.85 L662.1 57.7 Q661.3 59.5 659.6 59.65 658.45 59.65 657.85 58.7 L657.4 57.7 Q657.3 57.55 657.05 57.7 L656.85 57.9 Q656.7 58.5 656.95 59.15 L658.1 61.45 653.85 61.45 655.1 59.15 Q655.35 58.6 655.1 57.9 654.9 57.2 654.65 57.7 654.2 59.75 652.35 59.65 650.75 59.5 649.8 57.7 L649.6 55.85 Q649.7 54.35 650.65 53.55 652.1 52.15 653.95 54.1 L654.4 53.75 Q654.55 53.45 653.6 52.4 652.7 51.35 653.15 49.85 653.5 48.6 654.9 48.25 M679.15 53.55 Q680.6 52.15 682.35 54.1 L682.8 53.75 Q682.9 53.45 682.1 52.4 681.1 51.35 681.55 49.85 682 48.6 683.25 48.25 683.85 47.9 684.3 47.9 L684.55 47.9 685.7 48.25 Q686.85 48.6 687.3 49.85 687.75 51.35 686.85 52.4 685.9 53.45 686 53.75 686.25 54.25 686.5 54.1 L687.65 53.3 Q688.8 52.6 689.7 53.55 690.75 54.35 690.75 55.85 690.85 57 690.5 57.7 689.7 59.5 688.1 59.65 686.95 59.65 686.25 58.7 L685.8 57.7 Q685.7 57.55 685.55 57.7 L685.35 57.9 Q685.1 58.5 685.35 59.15 L686.5 61.45 682.25 61.45 683.5 59.15 Q683.75 58.6 683.6 57.9 683.4 57.2 683.05 57.7 682.6 59.75 680.75 59.65 679.25 59.5 678.3 57.7 678 57 678.1 55.85 678.1 54.35 679.15 53.55 M669.6 63.75 L672.35 66.65 675.35 69.85 Q676.7 71.6 675.9 73.2 675 75.15 672.6 75.05 L670.3 74.45 670.75 76.05 Q671.1 76.75 672 77.7 L667.3 77.7 668.55 76.05 669 74.45 666.85 75.05 Q664.3 75.15 663.4 73.2 662.6 71.6 663.95 69.85 L667.05 66.65 669.6 63.75 M692.45 37.35 L695.45 34.1 698.1 31.25 700.75 34.1 703.7 37.35 Q705.1 39.2 704.4 40.8 703.4 42.75 700.95 42.5 L698.65 41.95 699.15 43.55 700.4 45.15 695.7 45.15 697.05 43.55 697.5 41.95 695.2 42.5 Q692.8 42.75 691.9 40.8 691.1 39.2 692.45 37.35 M700.75 66.65 L703.7 69.85 Q705.1 71.6 704.4 73.2 703.4 75.15 700.95 75.05 L698.65 74.45 699.15 76.05 700.4 77.7 695.7 77.7 697.05 76.05 697.5 74.45 695.2 75.05 Q692.8 75.15 691.9 73.2 691.1 71.6 692.45 69.85 L695.45 66.65 698.1 63.75 700.75 66.65 M716 53.3 Q717.15 52.6 718.1 53.55 719.1 54.35 719.25 55.85 L719 57.7 Q718.2 59.5 716.5 59.65 715.35 59.65 714.65 58.7 L714.2 57.7 Q714.05 57.55 713.95 57.7 L713.7 57.9 Q713.5 58.5 713.85 59.15 713.85 59.5 715 61.45 L710.75 61.45 711.9 59.15 Q712.25 58.6 712 57.9 711.75 57.2 711.55 57.7 711.1 59.75 709.25 59.65 707.65 59.5 706.7 57.7 L706.5 55.85 Q706.6 54.35 707.5 53.55 709 52.15 710.85 54.1 L711.2 53.75 Q711.3 53.45 710.5 52.4 709.6 51.35 710.05 49.85 710.4 48.6 711.65 48.25 712.25 47.9 712.8 47.9 L712.9 47.9 714.05 48.25 Q715.35 48.6 715.65 49.85 716.15 51.35 715.2 52.4 714.3 53.45 714.4 53.75 714.65 54.25 715 54.1 L716 53.3 M684.55 80.45 L685.7 80.65 Q686.85 81.1 687.3 82.4 687.75 83.9 686.85 84.9 685.9 85.95 686 86.3 686.25 86.65 686.5 86.55 L687.65 85.7 Q688.8 85.15 689.7 85.95 690.75 86.85 690.75 88.35 690.85 89.5 690.5 90.1 689.7 92.05 688.1 92.05 686.95 92.15 686.25 91.1 L685.8 90.1 Q685.7 89.95 685.55 90.1 L685.35 90.3 Q685.1 91 685.35 91.6 L686.5 94 682.25 94 683.5 91.6 Q683.75 91 683.6 90.3 683.4 89.75 683.05 90.1 682.6 92.25 680.75 92.05 679.25 92.05 678.3 90.1 678 89.5 678.1 88.35 678.1 86.85 679.15 85.95 680.6 84.7 682.35 86.55 L682.8 86.3 Q682.9 85.95 682.1 84.9 681.1 83.9 681.55 82.4 682 81.1 683.25 80.65 L684.3 80.45 684.55 80.45 M710.5 84.9 Q709.6 83.9 710.05 82.4 710.4 81.1 711.65 80.65 L712.8 80.45 712.9 80.45 714.05 80.65 Q715.35 81.1 715.65 82.4 716.15 83.9 715.2 84.9 714.3 85.95 714.4 86.3 L715 86.55 716 85.7 Q717.15 85.15 718.1 85.95 719.1 86.85 719.25 88.35 L719 90.1 Q718.2 92.05 716.5 92.05 715.35 92.15 714.65 91.1 L714.2 90.1 Q714.05 89.95 713.95 90.1 L713.7 90.3 Q713.5 91 713.85 91.6 713.85 91.95 715 94 L710.75 94 711.9 91.6 Q712.25 91 712 90.3 711.75 89.75 711.55 90.1 711.1 92.25 709.25 92.05 707.65 92.05 706.7 90.1 L706.5 88.35 Q706.6 86.85 707.5 85.95 709 84.7 710.85 86.55 L711.2 86.3 Q711.3 85.95 710.5 84.9 M703.7 102.25 Q705.1 104.1 704.4 105.7 703.4 107.65 700.95 107.55 L698.65 106.85 699.15 108.5 700.4 110.2 695.7 110.2 697.05 108.5 697.5 106.85 695.2 107.55 Q692.8 107.65 691.9 105.7 691.1 104.1 692.45 102.25 L695.45 99.05 698.1 96.3 700.75 99.05 703.7 102.25 M684.55 112.95 L685.7 113.2 Q686.85 113.55 687.3 114.8 687.75 116.4 686.85 117.45 685.9 118.35 686 118.7 686.25 119.15 686.5 119.05 L687.65 118.25 Q688.8 117.65 689.7 118.5 690.75 119.3 690.75 120.75 690.85 122.05 690.5 122.6 689.7 124.55 688.1 124.55 686.95 124.55 686.25 123.65 L685.8 122.6 685.55 122.6 685.35 122.85 Q685.1 123.4 685.35 124.1 L686.5 126.5 682.25 126.5 683.5 124.1 Q683.75 123.55 683.6 122.85 683.4 122.25 683.05 122.6 682.6 124.7 680.75 124.55 679.25 124.55 678.3 122.6 678 121.9 678.1 120.75 678.1 119.3 679.15 118.5 680.6 117.1 682.35 119.05 L682.8 118.7 Q682.9 118.35 682.1 117.45 681.1 116.4 681.55 114.8 682 113.55 683.25 113.2 683.85 112.85 684.3 112.95 L684.55 112.95 M712.9 112.95 L714.05 113.2 Q715.35 113.55 715.65 114.8 716.15 116.4 715.2 117.45 714.3 118.35 714.4 118.7 714.65 119.15 715 119.05 L716 118.25 Q717.15 117.65 718.1 118.5 719.1 119.3 719.25 120.75 L719 122.6 Q718.2 124.55 716.5 124.55 715.35 124.55 714.65 123.65 L714.2 122.6 713.95 122.6 713.7 122.85 Q713.5 123.4 713.85 124.1 713.85 124.45 715 126.5 L710.75 126.5 711.9 124.1 Q712.25 123.55 712 122.85 711.75 122.25 711.55 122.6 711.1 124.7 709.25 124.55 707.65 124.55 706.7 122.6 L706.5 120.75 Q706.6 119.3 707.5 118.5 709 117.1 710.85 119.05 L711.2 118.7 Q711.3 118.35 710.5 117.45 709.6 116.4 710.05 114.8 710.4 113.55 711.65 113.2 L712.8 112.95 712.9 112.95 M650.65 85.95 Q652.1 84.7 653.95 86.55 L654.4 86.3 Q654.55 85.95 653.6 84.9 652.7 83.9 653.15 82.4 653.5 81.1 654.9 80.65 L655.9 80.45 656.05 80.45 657.2 80.65 Q658.45 81.1 658.8 82.4 659.25 83.9 658.35 84.9 657.5 85.95 657.65 86.3 657.75 86.65 658.1 86.55 L659.25 85.7 Q660.4 85.15 661.3 85.95 662.25 86.85 662.35 88.35 L662.1 90.1 Q661.3 92.05 659.6 92.05 658.45 92.15 657.85 91.1 L657.4 90.1 Q657.3 89.95 657.05 90.1 L656.85 90.3 Q656.7 91 656.95 91.6 L658.1 94 653.85 94 655.1 91.6 Q655.35 91 655.1 90.3 654.9 89.75 654.65 90.1 654.2 92.25 652.35 92.05 650.75 92.05 649.8 90.1 L649.6 88.35 Q649.7 86.85 650.65 85.95 M655.9 112.95 L656.05 112.95 657.2 113.2 Q658.45 113.55 658.8 114.8 659.25 116.4 658.35 117.45 657.5 118.35 657.65 118.7 657.75 119.15 658.1 119.05 L659.25 118.25 Q660.4 117.65 661.3 118.5 662.25 119.3 662.35 120.75 L662.1 122.6 Q661.3 124.55 659.6 124.55 658.45 124.55 657.85 123.65 L657.4 122.6 657.05 122.6 656.85 122.85 Q656.7 123.4 656.95 124.1 L658.1 126.5 653.85 126.5 655.1 124.1 Q655.35 123.55 655.1 122.85 654.9 122.25 654.65 122.6 654.2 124.7 652.35 124.55 650.75 124.55 649.8 122.6 L649.6 120.75 Q649.7 119.3 650.65 118.5 652.1 117.1 653.95 119.05 L654.4 118.7 Q654.55 118.35 653.6 117.45 652.7 116.4 653.15 114.8 653.5 113.55 654.9 113.2 L655.9 112.95 M663.95 102.25 L667.05 99.05 669.6 96.3 672.35 99.05 675.35 102.25 Q676.7 104.1 675.9 105.7 675 107.65 672.6 107.55 L670.3 106.85 670.75 108.5 Q671.1 109.3 672 110.2 L667.3 110.2 668.55 108.5 669 106.85 Q668 107.45 666.85 107.55 664.3 107.65 663.4 105.7 662.6 104.1 663.95 102.25 M669 139.4 L666.85 139.95 Q664.3 140.1 663.4 138.15 662.6 136.65 663.95 134.8 L667.05 131.6 669.6 128.7 672.35 131.6 675.35 134.8 Q676.7 136.65 675.9 138.15 675 140.1 672.6 139.95 L670.3 139.4 670.75 141 Q671.1 141.8 672 142.6 L667.3 142.6 Q668.2 141.8 668.55 141 L669 139.4 M654.9 145.6 L655.9 145.35 656.05 145.35 657.2 145.6 Q658.45 146.05 658.8 147.3 659.25 148.8 658.35 149.85 657.5 150.9 657.65 151.25 L658.1 151.55 659.25 150.75 Q660.4 150.1 661.3 151 662.25 151.8 662.35 153.3 L662.1 155 Q661.3 157 659.6 157.1 658.45 157.1 657.85 156.15 L657.4 155 657.05 155 656.85 155.35 Q656.7 155.95 656.95 156.65 L658.1 158.95 653.85 158.95 655.1 156.65 Q655.35 156.05 655.1 155.35 654.9 154.7 654.65 155 654.2 157.2 652.35 157.1 650.75 157 649.8 155 L649.6 153.3 Q649.7 151.8 650.65 151 652.1 149.6 653.95 151.55 L654.4 151.25 Q654.55 150.9 653.6 149.85 652.7 148.8 653.15 147.3 653.5 146.05 654.9 145.6 M681.55 147.3 Q682 146.05 683.25 145.6 L684.3 145.35 684.55 145.35 685.7 145.6 Q686.85 146.05 687.3 147.3 687.75 148.8 686.85 149.85 685.9 150.9 686 151.25 L686.5 151.55 687.65 150.75 Q688.8 150.1 689.7 151 690.75 151.8 690.75 153.3 690.85 154.45 690.5 155 689.7 157 688.1 157.1 686.95 157.1 686.25 156.15 L685.8 155 685.55 155 Q685.35 155 685.35 155.35 685.1 155.95 685.35 156.65 L686.5 158.95 682.25 158.95 683.5 156.65 Q683.75 156.05 683.6 155.35 683.4 154.7 683.05 155 682.6 157.2 680.75 157.1 679.25 157 678.3 155 678 154.45 678.1 153.3 678.1 151.8 679.15 151 680.6 149.6 682.35 151.55 L682.8 151.25 Q682.9 150.9 682.1 149.85 681.1 148.8 681.55 147.3 M669.6 161.15 L672.35 164.05 675.35 167.25 Q676.7 169.1 675.9 170.6 675 172.55 672.6 172.4 L670.3 171.85 670.75 173.45 Q671.1 174.25 672 175.05 L667.3 175.05 Q668.2 174.25 668.55 173.45 L669 171.85 666.85 172.4 Q664.3 172.55 663.4 170.6 662.6 169.1 663.95 167.25 L667.05 164.05 669.6 161.15 M692.45 134.8 L695.45 131.6 698.1 128.7 700.75 131.6 703.7 134.8 Q705.1 136.65 704.4 138.15 703.4 140.1 700.95 139.95 L698.65 139.4 699.15 141 700.4 142.6 695.7 142.6 697.05 141 697.5 139.4 695.2 139.95 Q692.8 140.1 691.9 138.15 691.1 136.65 692.45 134.8 M700.75 164.05 L703.7 167.25 Q705.1 169.1 704.4 170.6 703.4 172.55 700.95 172.4 L698.65 171.85 699.15 173.45 700.4 175.05 695.7 175.05 697.05 173.45 697.5 171.85 695.2 172.4 Q692.8 172.55 691.9 170.6 691.1 169.1 692.45 167.25 L695.45 164.05 698.1 161.15 700.75 164.05 M718.1 151 Q719.1 151.8 719.25 153.3 L719 155 Q718.2 157 716.5 157.1 715.35 157.1 714.65 156.15 L714.2 155 713.95 155 Q713.85 155 713.7 155.35 713.5 155.95 713.85 156.65 713.85 157 715 158.95 L710.75 158.95 711.9 156.65 Q712.25 156.05 712 155.35 711.75 154.7 711.55 155 711.1 157.2 709.25 157.1 707.65 157 706.7 155 L706.5 153.3 Q706.6 151.8 707.5 151 709 149.6 710.85 151.55 L711.2 151.25 Q711.3 150.9 710.5 149.85 709.6 148.8 710.05 147.3 710.4 146.05 711.65 145.6 L712.8 145.35 712.9 145.35 714.05 145.6 Q715.35 146.05 715.65 147.3 716.15 148.8 715.2 149.85 714.3 150.9 714.4 151.25 714.65 151.55 715 151.55 L716 150.75 Q717.15 150.1 718.1 151"/>
    <path stroke="none" fill="#FFFFFF" fill-opacity="0.10196078431372549" d="M635.9 22.05 L641.2 15.15 646.6 22.05 641.2 28.95 635.9 22.05 M628 32.25 Q629 31 630.65 31 632.25 31 633.25 32.25 634.1 33.3 634.1 34.7 634.1 35.7 633.5 36.85 632.8 38.15 631.9 39.05 628.1 42.85 627.2 44.9 626.15 42.85 622.35 39.05 621.55 38.15 620.85 36.85 620.05 35.7 620.05 34.7 620.05 33.3 621 32.25 622 31 623.6 31 625.25 31 626.25 32.25 627.05 33.2 627.2 34.45 627.2 33.2 628 32.25 M623.6 63.5 Q625.25 63.5 626.25 64.65 627.05 65.7 627.2 66.95 627.2 65.7 628 64.65 629 63.5 630.65 63.5 632.25 63.5 633.25 64.8 634.1 65.8 634.1 67.1 634.1 68.1 633.5 69.4 L631.9 71.55 Q628.1 75.35 627.2 77.45 626.15 75.35 622.35 71.55 621.55 70.65 620.85 69.4 620.05 68.1 620.05 67.1 620.05 65.8 621 64.8 622 63.5 623.6 63.5 M641.2 47.55 L646.6 54.45 641.2 61.45 635.9 54.45 641.2 47.55 M641.2 80.05 L646.6 86.95 641.2 93.85 635.9 86.95 641.2 80.05 M623.6 96.05 Q625.25 96.05 626.25 97.2 627.05 98.1 627.2 99.5 627.2 98.1 628 97.2 629 96.05 630.65 96.05 632.25 96.05 633.25 97.2 634.1 98.25 634.1 99.6 634.1 100.65 633.5 101.9 L631.9 103.95 Q628.1 107.9 627.2 109.95 626.15 107.9 622.35 103.95 L620.85 101.9 Q620.05 100.65 620.05 99.6 620.05 98.25 621 97.2 622 96.05 623.6 96.05 M635.9 119.5 L641.2 112.6 646.6 119.5 641.2 126.4 635.9 119.5 M628 129.7 Q629 128.45 630.65 128.45 632.25 128.45 633.25 129.7 634.1 130.75 634.1 132.15 634.1 133.05 633.5 134.3 632.8 135.6 631.9 136.5 628.1 140.3 627.2 142.35 626.15 140.3 622.35 136.5 621.55 135.6 620.85 134.3 620.05 133.05 620.05 132.15 620.05 130.75 621 129.7 622 128.45 623.6 128.45 625.25 128.45 626.25 129.7 627.05 130.65 627.2 131.9 627.2 130.65 628 129.7 M623.6 160.9 Q625.25 160.9 626.25 162.15 627.05 163.1 627.2 164.35 627.2 163.1 628 162.15 629 160.9 630.65 160.9 632.25 160.9 633.25 162.15 634.1 163.2 634.1 164.6 634.1 165.5 633.5 166.75 632.8 168.05 631.9 168.95 628.1 172.75 627.2 174.8 626.15 172.75 622.35 168.95 621.55 168.05 620.85 166.75 620.05 165.5 620.05 164.6 620.05 163.2 621 162.15 622 160.9 623.6 160.9 M641.2 145 L646.6 151.9 641.2 158.9 635.9 151.9 641.2 145 M664.3 22.05 L669.7 15.15 675 22.05 669.7 28.95 664.3 22.05 M676.95 34.7 Q676.95 33.3 677.85 32.25 678.9 31 680.5 31 682.1 31 683.15 32.25 683.95 33.2 683.95 34.45 684.05 33.2 684.85 32.25 685.8 31 687.4 31 689 31 690.05 32.25 690.95 33.3 690.95 34.7 690.95 35.7 690.3 36.85 L688.8 39.05 Q685 42.85 683.95 44.9 682.9 42.85 679.25 39.05 678.3 38.15 677.65 36.85 676.95 35.7 676.95 34.7 M648.55 34.7 Q648.55 33.3 649.5 32.25 650.4 31 652.1 31 653.75 31 654.65 32.25 655.45 33.2 655.55 34.45 655.55 33.2 656.5 32.25 657.4 31 659 31 660.65 31 661.65 32.25 662.6 33.3 662.6 34.7 662.6 35.7 661.9 36.85 661.2 38.15 660.3 39.05 656.6 42.85 655.55 44.9 654.55 42.85 650.75 39.05 649.95 38.15 649.25 36.85 648.55 35.7 648.55 34.7 M652.1 63.5 Q653.75 63.5 654.65 64.65 655.45 65.7 655.55 66.95 655.55 65.7 656.5 64.65 657.4 63.5 659 63.5 660.65 63.5 661.65 64.8 662.6 65.8 662.6 67.1 662.6 68.1 661.9 69.4 L660.3 71.55 Q656.6 75.35 655.55 77.45 654.55 75.35 650.75 71.55 L649.25 69.4 Q648.55 68.1 648.55 67.1 648.55 65.8 649.5 64.8 650.4 63.5 652.1 63.5 M669.7 47.55 L675 54.45 669.7 61.45 664.3 54.45 669.7 47.55 M683.95 66.95 Q684.05 65.7 684.85 64.65 685.8 63.5 687.4 63.5 689 63.5 690.05 64.8 690.95 65.8 690.95 67.1 690.95 68.1 690.3 69.4 L688.8 71.55 Q685 75.35 683.95 77.45 682.9 75.35 679.25 71.55 678.3 70.65 677.65 69.4 676.95 68.1 676.95 67.1 676.95 65.8 677.85 64.8 678.9 63.5 680.5 63.5 682.1 63.5 683.15 64.65 683.95 65.7 683.95 66.95 M706.15 36.85 Q705.45 35.7 705.45 34.7 705.45 33.3 706.25 32.25 707.3 31 708.9 31 710.5 31 711.55 32.25 712.35 33.2 712.45 34.45 712.45 33.2 713.25 32.25 714.3 31 715.9 31 717.5 31 718.55 32.25 719.35 33.3 719.35 34.7 719.35 35.7 718.8 36.85 L717.15 39.05 Q713.35 42.85 712.45 44.9 711.4 42.85 707.65 39.05 706.8 38.15 706.15 36.85 M698.1 28.95 L692.8 22.05 698.1 15.15 703.4 22.05 698.1 28.95 M703.4 54.45 L698.1 61.45 692.8 54.45 698.1 47.55 703.4 54.45 M708.9 63.5 Q710.5 63.5 711.55 64.65 712.35 65.7 712.45 66.95 712.45 65.7 713.25 64.65 714.3 63.5 715.9 63.5 717.5 63.5 718.55 64.8 719.35 65.8 719.35 67.1 719.35 68.1 718.8 69.4 L717.15 71.55 Q713.35 75.35 712.45 77.45 711.4 75.35 707.65 71.55 L706.15 69.4 Q705.45 68.1 705.45 67.1 705.45 65.8 706.25 64.8 707.3 63.5 708.9 63.5 M703.4 86.95 L698.1 93.85 692.8 86.95 698.1 80.05 703.4 86.95 M687.4 96.05 Q689 96.05 690.05 97.2 690.95 98.25 690.95 99.6 690.95 100.65 690.3 101.9 L688.8 103.95 Q685 107.9 683.95 109.95 682.9 107.9 679.25 103.95 678.3 103.05 677.65 101.9 676.95 100.65 676.95 99.6 676.95 98.25 677.85 97.2 678.9 96.05 680.5 96.05 682.1 96.05 683.15 97.2 683.95 98.1 683.95 99.5 684.05 98.1 684.85 97.2 685.8 96.05 687.4 96.05 M718.55 97.2 Q719.35 98.25 719.35 99.6 719.35 100.65 718.8 101.9 L717.15 103.95 Q713.35 107.9 712.45 109.95 711.4 107.9 707.65 103.95 L706.15 101.9 Q705.45 100.65 705.45 99.6 705.45 98.25 706.25 97.2 707.3 96.05 708.9 96.05 710.5 96.05 711.55 97.2 712.35 98.1 712.45 99.5 712.45 98.1 713.25 97.2 714.3 96.05 715.9 96.05 717.5 96.05 718.55 97.2 M669.7 80.05 L675 86.95 669.7 93.85 664.3 86.95 669.7 80.05 M661.65 97.2 Q662.6 98.25 662.6 99.6 662.6 100.65 661.9 101.9 L660.3 103.95 Q656.6 107.9 655.55 109.95 654.55 107.9 650.75 103.95 L649.25 101.9 Q648.55 100.65 648.55 99.6 648.55 98.25 649.5 97.2 650.4 96.05 652.1 96.05 653.75 96.05 654.65 97.2 655.45 98.1 655.55 99.5 655.55 98.1 656.5 97.2 657.4 96.05 659 96.05 660.65 96.05 661.65 97.2 M664.3 119.5 L669.7 112.6 675 119.5 669.7 126.4 664.3 119.5 M677.65 134.3 Q676.95 133.05 676.95 132.15 676.95 130.75 677.85 129.7 678.9 128.45 680.5 128.45 682.1 128.45 683.15 129.7 683.95 130.65 683.95 131.9 684.05 130.65 684.85 129.7 685.8 128.45 687.4 128.45 689 128.45 690.05 129.7 690.95 130.75 690.95 132.15 L690.3 134.3 688.8 136.5 Q685 140.3 683.95 142.35 682.9 140.3 679.25 136.5 678.3 135.6 677.65 134.3 M649.25 134.3 Q648.55 133.05 648.55 132.15 648.55 130.75 649.5 129.7 650.4 128.45 652.1 128.45 653.75 128.45 654.65 129.7 655.45 130.65 655.55 131.9 655.55 130.65 656.5 129.7 657.4 128.45 659 128.45 660.65 128.45 661.65 129.7 662.6 130.75 662.6 132.15 662.6 133.05 661.9 134.3 661.2 135.6 660.3 136.5 656.6 140.3 655.55 142.35 654.55 140.3 650.75 136.5 649.95 135.6 649.25 134.3 M649.5 162.15 Q650.4 160.9 652.1 160.9 653.75 160.9 654.65 162.15 655.45 163.1 655.55 164.35 655.55 163.1 656.5 162.15 657.4 160.9 659 160.9 660.65 160.9 661.65 162.15 662.6 163.2 662.6 164.6 662.6 165.5 661.9 166.75 661.2 168.05 660.3 168.95 656.6 172.75 655.55 174.8 654.55 172.75 650.75 168.95 649.95 168.05 649.25 166.75 648.55 165.5 648.55 164.6 648.55 163.2 649.5 162.15 M669.7 145 L675 151.9 669.7 158.9 664.3 151.9 669.7 145 M677.85 162.15 Q678.9 160.9 680.5 160.9 682.1 160.9 683.15 162.15 683.95 163.1 683.95 164.35 684.05 163.1 684.85 162.15 685.8 160.9 687.4 160.9 689 160.9 690.05 162.15 690.95 163.2 690.95 164.6 L690.3 166.75 688.8 168.95 Q685 172.75 683.95 174.8 682.9 172.75 679.25 168.95 678.3 168.05 677.65 166.75 676.95 165.5 676.95 164.6 676.95 163.2 677.85 162.15 M706.15 134.3 Q705.45 133.05 705.45 132.15 705.45 130.75 706.25 129.7 707.3 128.45 708.9 128.45 710.5 128.45 711.55 129.7 712.35 130.65 712.45 131.9 712.45 130.65 713.25 129.7 714.3 128.45 715.9 128.45 717.5 128.45 718.55 129.7 719.35 130.75 719.35 132.15 719.35 133.05 718.8 134.3 L717.15 136.5 Q713.35 140.3 712.45 142.35 711.4 140.3 707.65 136.5 706.8 135.6 706.15 134.3 M698.1 126.4 L692.8 119.5 698.1 112.6 703.4 119.5 698.1 126.4 M703.4 151.9 L698.1 158.9 692.8 151.9 698.1 145 703.4 151.9 M708.9 160.9 Q710.5 160.9 711.55 162.15 712.35 163.1 712.45 164.35 712.45 163.1 713.25 162.15 714.3 160.9 715.9 160.9 717.5 160.9 718.55 162.15 719.35 163.2 719.35 164.6 719.35 165.5 718.8 166.75 L717.15 168.95 Q713.35 172.75 712.45 174.8 711.4 172.75 707.65 168.95 706.8 168.05 706.15 166.75 705.45 165.5 705.45 164.6 705.45 163.2 706.25 162.15 707.3 160.9 708.9 160.9"/>
    <path stroke="none" fill="#FFFFFF" d="M883 183 L883 7 757 7 757 183 883 183 M883 2 Q888 2 888 7 L888 183 Q888 188 883 188 L757 188 Q752 188 752 183 L752 7 Q752 2 757 2 L883 2"/>
    <path stroke="none" fill="#BBBBBB" d="M883 2 L757 2 Q752 2 752 7 L752 183 Q752 188 757 188 L883 188 Q888 188 888 183 L888 7 Q888 2 883 2 M890 7 L890 183 Q890 190 883 190 L757 190 Q750 190 750 183 L750 7 Q750 0 757 0 L883 0 Q890 0 890 7"/>
    <path stroke="none" fill="#A03232" d="M883 183 L757 183 757 7 883 7 883 183"/>
    <path stroke="none" fill="#000000" fill-opacity="0.2" d="M807.55 66.8 L807.75 66.8 809.95 67.3 Q812.4 68 813.05 70.4 813.95 73.5 812.2 75.5 810.35 77.45 810.65 77.95 811.05 78.8 811.7 78.6 L813.75 77.05 Q815.95 75.9 817.7 77.45 819.75 79 819.9 81.9 819.9 84.4 819.55 85.45 818 89.25 814.6 89.25 812.4 89.45 811.05 87.5 L810.15 85.45 Q809.95 85.3 809.75 85.45 809.5 85.45 809.3 85.95 808.8 87 809.5 88.35 809.5 89.05 811.7 93 L803.5 93 805.7 88.35 Q806.4 87.3 805.9 85.95 805.5 84.8 804.85 85.45 804.15 89.45 800.6 89.25 797.5 89.25 795.75 85.45 795.25 84.1 795.25 81.9 795.45 79 797.3 77.45 800.2 75.05 803.5 78.6 804.15 78.8 804.35 77.95 804.65 77.45 803.1 75.5 801.25 73.5 802.15 70.4 802.8 68 805.3 67.3 806.4 66.6 807.55 66.8 M823 109.05 L829 102.8 833.95 97.25 839.25 102.8 Q844.55 108.4 844.85 109.05 847.45 112.65 846.1 115.75 844.4 119.5 839.55 119 L835.3 117.95 835.95 121.05 Q836.85 122.6 838.6 124.15 L829.5 124.15 Q831.25 122.6 831.9 121.05 L832.85 117.95 Q830.85 118.8 828.45 119 823.7 119.5 821.95 115.75 820.4 112.65 823 109.05"/>
    <path stroke="none" fill="#FFFFFF" fill-opacity="0.10196078431372549" d="M808.4 99.2 Q810.35 96.8 813.55 96.8 816.65 96.8 818.55 99.2 820.2 101.25 820.2 103.95 820.2 105.85 819.05 108.1 817.7 110.6 815.95 112.35 808.6 119.7 806.85 123.65 804.85 119.7 797.5 112.35 795.95 110.6 794.6 108.1 793.05 105.85 793.05 103.95 793.05 101.25 794.9 99.2 796.8 96.8 799.9 96.8 803.1 96.8 805.05 99.2 806.6 101.05 806.85 103.45 806.85 101.05 808.4 99.2 M823.7 79.5 L833.95 66.15 844.4 79.5 833.95 92.8 823.7 79.5"/>
    <path stroke="none" fill="#FFFFFF" d="M1033 2 Q1038 2 1038 7 L1038 183 Q1038 188 1033 188 L907 188 Q902 188 902 183 L902 7 Q902 2 907 2 L1033 2 M1033 183 L1033 7 907 7 907 183 1033 183"/>
    <path stroke="none" fill="#BBBBBB" d="M1040 7 L1040 183 Q1040 190 1033 190 L907 190 Q900 190 900 183 L900 7 Q900 0 907 0 L1033 0 Q1040 0 1040 7 M1033 2 L907 2 Q902 2 902 7 L902 183 Q902 188 907 188 L1033 188 Q1038 188 1038 183 L1038 7 Q1038 2 1033 2"/>
    <path stroke="none" fill="#11637E" d="M1033 183 L907 183 907 7 1033 7 1033 183"/>
    <path stroke="none" fill="#FFFFFF" d="M1057 7 L1057 183 1183 183 1183 7 1057 7 M1183 2 Q1188 2 1188 7 L1188 183 Q1188 188 1183 188 L1057 188 Q1052 188 1052 183 L1052 7 Q1052 2 1057 2 L1183 2"/>
    <path stroke="none" fill="#BBBBBB" d="M1183 2 L1057 2 Q1052 2 1052 7 L1052 183 Q1052 188 1057 188 L1183 188 Q1188 188 1188 183 L1188 7 Q1188 2 1183 2 M1190 7 L1190 183 Q1190 190 1183 190 L1057 190 Q1050 190 1050 183 L1050 7 Q1050 0 1057 0 L1183 0 Q1190 0 1190 7"/>
    <path stroke="none" fill="#11637E" d="M1057 7 L1183 7 1183 183 1057 183 1057 7"/>
    <path stroke="none" fill="#000000" fill-opacity="0.2" d="M1161.65 15.75 Q1162.25 15.4 1162.8 15.5 L1162.9 15.5 1164.05 15.75 Q1165.35 16.1 1165.65 17.35 1166.15 18.95 1165.2 20 1164.3 21 1164.4 21.25 1164.65 21.7 1165 21.6 L1166 20.8 Q1167.15 20.2 1168.1 21 1169.1 21.8 1169.25 23.3 L1169 25.15 Q1168.2 27.1 1166.5 27.1 1165.35 27.2 1164.65 26.2 L1164.2 25.15 1163.95 25.15 1163.7 25.4 Q1163.5 25.95 1163.85 26.65 1163.85 27 1165 29.05 L1160.75 29.05 1161.9 26.65 Q1162.25 26.1 1162 25.4 1161.75 24.8 1161.55 25.15 1161.1 27.2 1159.25 27.1 1157.65 27.1 1156.7 25.15 L1156.5 23.3 Q1156.6 21.8 1157.5 21 1159 19.75 1160.85 21.6 L1161.2 21.25 1160.5 20 Q1159.6 18.95 1160.05 17.35 1160.4 16.1 1161.65 15.75 M1134.3 15.5 L1134.55 15.5 1135.7 15.75 Q1136.85 16.1 1137.3 17.35 1137.75 18.95 1136.85 20 1135.9 21 1136 21.25 1136.25 21.7 1136.5 21.6 L1137.65 20.8 Q1138.8 20.2 1139.7 21 1140.75 21.8 1140.75 23.3 1140.85 24.6 1140.5 25.15 1139.7 27.1 1138.1 27.1 1136.95 27.2 1136.25 26.2 L1135.8 25.15 1135.55 25.15 1135.35 25.4 Q1135.1 25.95 1135.35 26.65 L1136.5 29.05 1132.25 29.05 1133.5 26.65 Q1133.75 26.1 1133.6 25.4 1133.4 24.8 1133.05 25.15 1132.6 27.2 1130.75 27.1 1129.25 27.1 1128.3 25.15 1128 24.45 1128.1 23.3 1128.1 21.8 1129.15 21 1130.6 19.75 1132.35 21.6 L1132.8 21.25 Q1132.9 21 1132.1 20 1131.1 18.95 1131.55 17.35 1132 16.1 1133.25 15.75 L1134.3 15.5 M1154.4 40.8 Q1153.4 42.75 1150.95 42.5 L1148.65 41.95 1149.15 43.55 1150.4 45.15 1145.7 45.15 1147.05 43.55 1147.5 41.95 1145.2 42.5 Q1142.8 42.75 1141.9 40.8 1141.1 39.2 1142.45 37.35 L1145.45 34.1 1148.1 31.25 1150.75 34.1 1153.7 37.35 Q1155.1 39.2 1154.4 40.8 M1133.25 48.25 Q1133.85 47.9 1134.3 47.9 L1134.55 47.9 1135.7 48.25 Q1136.85 48.6 1137.3 49.85 1137.75 51.35 1136.85 52.4 1135.9 53.45 1136 53.75 1136.25 54.25 1136.5 54.1 L1137.65 53.3 Q1138.8 52.6 1139.7 53.55 1140.75 54.35 1140.75 55.85 1140.85 57 1140.5 57.7 1139.7 59.5 1138.1 59.65 1136.95 59.65 1136.25 58.7 L1135.8 57.7 Q1135.7 57.55 1135.55 57.7 L1135.35 57.9 Q1135.1 58.5 1135.35 59.15 L1136.5 61.45 1132.25 61.45 1133.5 59.15 Q1133.75 58.6 1133.6 57.9 1133.4 57.2 1133.05 57.7 1132.6 59.75 1130.75 59.65 1129.25 59.5 1128.3 57.7 1128 57 1128.1 55.85 1128.1 54.35 1129.15 53.55 1130.6 52.15 1132.35 54.1 L1132.8 53.75 Q1132.9 53.45 1132.1 52.4 1131.1 51.35 1131.55 49.85 1132 48.6 1133.25 48.25 M1148.1 63.75 L1150.75 66.65 1153.7 69.85 Q1155.1 71.6 1154.4 73.2 1153.4 75.15 1150.95 75.05 L1148.65 74.45 1149.15 76.05 1150.4 77.7 1145.7 77.7 1147.05 76.05 1147.5 74.45 1145.2 75.05 Q1142.8 75.15 1141.9 73.2 1141.1 71.6 1142.45 69.85 L1145.45 66.65 1148.1 63.75 M1162.9 47.9 L1164.05 48.25 Q1165.35 48.6 1165.65 49.85 1166.15 51.35 1165.2 52.4 1164.3 53.45 1164.4 53.75 1164.65 54.25 1165 54.1 L1166 53.3 Q1167.15 52.6 1168.1 53.55 1169.1 54.35 1169.25 55.85 L1169 57.7 Q1168.2 59.5 1166.5 59.65 1165.35 59.65 1164.65 58.7 L1164.2 57.7 Q1164.05 57.55 1163.95 57.7 L1163.7 57.9 Q1163.5 58.5 1163.85 59.15 1163.85 59.5 1165 61.45 L1160.75 61.45 1161.9 59.15 Q1162.25 58.6 1162 57.9 1161.75 57.2 1161.55 57.7 1161.1 59.75 1159.25 59.65 1157.65 59.5 1156.7 57.7 L1156.5 55.85 Q1156.6 54.35 1157.5 53.55 1159 52.15 1160.85 54.1 L1161.2 53.75 Q1161.3 53.45 1160.5 52.4 1159.6 51.35 1160.05 49.85 1160.4 48.6 1161.65 48.25 1162.25 47.9 1162.8 47.9 L1162.9 47.9 M1135.7 80.65 Q1136.85 81.1 1137.3 82.4 1137.75 83.9 1136.85 84.9 1135.9 85.95 1136 86.3 1136.25 86.65 1136.5 86.55 L1137.65 85.7 Q1138.8 85.15 1139.7 85.95 1140.75 86.85 1140.75 88.35 1140.85 89.5 1140.5 90.1 1139.7 92.05 1138.1 92.05 1136.95 92.15 1136.25 91.1 L1135.8 90.1 Q1135.7 89.95 1135.55 90.1 L1135.35 90.3 Q1135.1 91 1135.35 91.6 L1136.5 94 1132.25 94 1133.5 91.6 Q1133.75 91 1133.6 90.3 1133.4 89.75 1133.05 90.1 1132.6 92.25 1130.75 92.05 1129.25 92.05 1128.3 90.1 1128 89.5 1128.1 88.35 1128.1 86.85 1129.15 85.95 1130.6 84.7 1132.35 86.55 L1132.8 86.3 Q1132.9 85.95 1132.1 84.9 1131.1 83.9 1131.55 82.4 1132 81.1 1133.25 80.65 L1134.3 80.45 1134.55 80.45 1135.7 80.65 M1156.7 90.1 L1156.5 88.35 Q1156.6 86.85 1157.5 85.95 1159 84.7 1160.85 86.55 L1161.2 86.3 Q1161.3 85.95 1160.5 84.9 1159.6 83.9 1160.05 82.4 1160.4 81.1 1161.65 80.65 L1162.8 80.45 1162.9 80.45 1164.05 80.65 Q1165.35 81.1 1165.65 82.4 1166.15 83.9 1165.2 84.9 1164.3 85.95 1164.4 86.3 L1165 86.55 1166 85.7 Q1167.15 85.15 1168.1 85.95 1169.1 86.85 1169.25 88.35 L1169 90.1 Q1168.2 92.05 1166.5 92.05 1165.35 92.15 1164.65 91.1 L1164.2 90.1 Q1164.05 89.95 1163.95 90.1 L1163.7 90.3 Q1163.5 91 1163.85 91.6 1163.85 91.95 1165 94 L1160.75 94 1161.9 91.6 Q1162.25 91 1162 90.3 1161.75 89.75 1161.55 90.1 1161.1 92.25 1159.25 92.05 1157.65 92.05 1156.7 90.1 M1148.1 96.3 L1150.75 99.05 1153.7 102.25 Q1155.1 104.1 1154.4 105.7 1153.4 107.65 1150.95 107.55 L1148.65 106.85 1149.15 108.5 1150.4 110.2 1145.7 110.2 1147.05 108.5 1147.5 106.85 Q1146.5 107.45 1145.2 107.55 1142.8 107.65 1141.9 105.7 1141.1 104.1 1142.45 102.25 L1145.45 99.05 1148.1 96.3 M1133.25 113.2 L1134.3 112.95 1134.55 112.95 1135.7 113.2 Q1136.85 113.55 1137.3 114.8 1137.75 116.4 1136.85 117.45 1135.9 118.35 1136 118.7 1136.25 119.15 1136.5 119.05 L1137.65 118.25 Q1138.8 117.65 1139.7 118.5 1140.75 119.3 1140.75 120.75 1140.85 122.05 1140.5 122.6 1139.7 124.55 1138.1 124.55 1136.95 124.55 1136.25 123.65 L1135.8 122.6 1135.55 122.6 1135.35 122.85 Q1135.1 123.4 1135.35 124.1 L1136.5 126.5 1132.25 126.5 1133.5 124.1 Q1133.75 123.55 1133.6 122.85 1133.4 122.25 1133.05 122.6 1132.6 124.7 1130.75 124.55 1129.25 124.55 1128.3 122.6 1128 121.9 1128.1 120.75 1128.1 119.3 1129.15 118.5 1130.6 117.1 1132.35 119.05 L1132.8 118.7 Q1132.9 118.35 1132.1 117.45 1131.1 116.4 1131.55 114.8 1132 113.55 1133.25 113.2 M1162.9 112.95 L1164.05 113.2 Q1165.35 113.55 1165.65 114.8 1166.15 116.4 1165.2 117.45 1164.3 118.35 1164.4 118.7 1164.65 119.15 1165 119.05 L1166 118.25 Q1167.15 117.65 1168.1 118.5 1169.1 119.3 1169.25 120.75 L1169 122.6 Q1168.2 124.55 1166.5 124.55 1165.35 124.55 1164.65 123.65 L1164.2 122.6 1163.95 122.6 1163.7 122.85 Q1163.5 123.4 1163.85 124.1 1163.85 124.45 1165 126.5 L1160.75 126.5 1161.9 124.1 Q1162.25 123.55 1162 122.85 1161.75 122.25 1161.55 122.6 1161.1 124.7 1159.25 124.55 1157.65 124.55 1156.7 122.6 L1156.5 120.75 Q1156.6 119.3 1157.5 118.5 1159 117.1 1160.85 119.05 L1161.2 118.7 Q1161.3 118.35 1160.5 117.45 1159.6 116.4 1160.05 114.8 1160.4 113.55 1161.65 113.2 1162.25 112.85 1162.8 112.95 L1162.9 112.95 M1150.95 139.95 L1148.65 139.4 1149.15 141 1150.4 142.6 1145.7 142.6 1147.05 141 1147.5 139.4 1145.2 139.95 Q1142.8 140.1 1141.9 138.15 1141.1 136.65 1142.45 134.8 L1145.45 131.6 1148.1 128.7 1150.75 131.6 1153.7 134.8 Q1155.1 136.65 1154.4 138.15 1153.4 140.1 1150.95 139.95 M1135.7 145.6 Q1136.85 146.05 1137.3 147.3 1137.75 148.8 1136.85 149.85 1135.9 150.9 1136 151.25 L1136.5 151.55 1137.65 150.75 Q1138.8 150.1 1139.7 151 1140.75 151.8 1140.75 153.3 1140.85 154.45 1140.5 155 1139.7 157 1138.1 157.1 1136.95 157.1 1136.25 156.15 L1135.8 155 1135.55 155 Q1135.35 155 1135.35 155.35 1135.1 155.95 1135.35 156.65 L1136.5 158.95 1132.25 158.95 1133.5 156.65 Q1133.75 156.05 1133.6 155.35 1133.4 154.7 1133.05 155 1132.6 157.2 1130.75 157.1 1129.25 157 1128.3 155 1128 154.45 1128.1 153.3 1128.1 151.8 1129.15 151 1130.6 149.6 1132.35 151.55 L1132.8 151.25 Q1132.9 150.9 1132.1 149.85 1131.1 148.8 1131.55 147.3 1132 146.05 1133.25 145.6 L1134.3 145.35 1134.55 145.35 1135.7 145.6 M1148.1 161.15 L1150.75 164.05 1153.7 167.25 Q1155.1 169.1 1154.4 170.6 1153.4 172.55 1150.95 172.4 L1148.65 171.85 1149.15 173.45 1150.4 175.05 1145.7 175.05 1147.05 173.45 1147.5 171.85 1145.2 172.4 Q1142.8 172.55 1141.9 170.6 1141.1 169.1 1142.45 167.25 L1145.45 164.05 1148.1 161.15 M1161.65 145.6 L1162.8 145.35 1162.9 145.35 1164.05 145.6 Q1165.35 146.05 1165.65 147.3 1166.15 148.8 1165.2 149.85 1164.3 150.9 1164.4 151.25 1164.65 151.55 1165 151.55 L1166 150.75 Q1167.15 150.1 1168.1 151 1169.1 151.8 1169.25 153.3 L1169 155 Q1168.2 157 1166.5 157.1 1165.35 157.1 1164.65 156.15 L1164.2 155 1163.95 155 1163.7 155.35 Q1163.5 155.95 1163.85 156.65 1163.85 157 1165 158.95 L1160.75 158.95 1161.9 156.65 Q1162.25 156.05 1162 155.35 1161.75 154.7 1161.55 155 1161.1 157.2 1159.25 157.1 1157.65 157 1156.7 155 L1156.5 153.3 Q1156.6 151.8 1157.5 151 1159 149.6 1160.85 151.55 L1161.2 151.25 Q1161.3 150.9 1160.5 149.85 1159.6 148.8 1160.05 147.3 1160.4 146.05 1161.65 145.6 M1077.65 15.5 L1078.8 15.75 Q1080.05 16.1 1080.4 17.35 1080.85 18.95 1079.95 20 1079 21 1079.15 21.25 1079.35 21.7 1079.7 21.6 L1080.75 20.8 Q1081.9 20.2 1082.8 21 1083.85 21.8 1083.95 23.3 L1083.75 25.15 Q1082.95 27.1 1081.2 27.1 1080.05 27.2 1079.35 26.2 L1078.9 25.15 1078.7 25.15 1078.45 25.4 Q1078.2 25.95 1078.55 26.65 1078.55 27 1079.7 29.05 L1075.45 29.05 1076.6 26.65 Q1076.95 26.1 1076.7 25.4 1076.5 24.8 1076.15 25.15 1075.8 27.2 1073.95 27.1 1072.35 27.1 1071.45 25.15 1071.2 24.45 1071.2 23.3 1071.3 21.8 1072.25 21 1073.75 19.75 1075.45 21.6 1075.8 21.7 1075.9 21.25 1076.05 21 1075.25 20 1074.3 18.95 1074.75 17.35 1075.1 16.1 1076.4 15.75 1076.95 15.4 1077.55 15.5 L1077.65 15.5 M1106.05 15.5 L1107.2 15.75 Q1108.45 16.1 1108.8 17.35 1109.25 18.95 1108.35 20 1107.5 21 1107.65 21.25 1107.75 21.7 1108.1 21.6 L1109.25 20.8 Q1110.4 20.2 1111.3 21 1112.25 21.8 1112.35 23.3 L1112.1 25.15 Q1111.3 27.1 1109.6 27.1 1108.45 27.2 1107.85 26.2 L1107.4 25.15 1107.05 25.15 1106.85 25.4 Q1106.7 25.95 1106.95 26.65 L1108.1 29.05 1103.85 29.05 1105.1 26.65 Q1105.35 26.1 1105.1 25.4 1104.9 24.8 1104.65 25.15 1104.2 27.2 1102.35 27.1 1100.75 27.1 1099.8 25.15 L1099.6 23.3 Q1099.7 21.8 1100.65 21 1102.1 19.75 1103.95 21.6 1104.2 21.7 1104.4 21.25 1104.55 21 1103.6 20 1102.7 18.95 1103.15 17.35 1103.5 16.1 1104.9 15.75 L1105.9 15.5 1106.05 15.5 M1085.55 37.35 L1088.65 34.1 1091.2 31.25 1093.95 34.1 1096.85 37.35 Q1098.2 39.2 1097.5 40.8 1096.6 42.75 1094.1 42.5 L1091.9 41.95 1092.25 43.55 1093.6 45.15 1088.9 45.15 1090.15 43.55 1090.65 41.95 1088.35 42.5 Q1085.9 42.75 1085 40.8 1084.2 39.2 1085.55 37.35 M1080.75 53.3 Q1081.9 52.6 1082.8 53.55 1083.85 54.35 1083.95 55.85 L1083.75 57.7 Q1082.95 59.5 1081.2 59.65 1080.05 59.65 1079.35 58.7 L1078.9 57.7 Q1078.8 57.55 1078.7 57.7 L1078.45 57.9 Q1078.2 58.5 1078.55 59.15 1078.55 59.5 1079.7 61.45 L1075.45 61.45 1076.6 59.15 Q1076.95 58.6 1076.7 57.9 1076.5 57.2 1076.15 57.7 1075.8 59.75 1073.95 59.65 1072.35 59.5 1071.45 57.7 1071.2 57 1071.2 55.85 1071.3 54.35 1072.25 53.55 1073.75 52.15 1075.45 54.1 L1075.9 53.75 Q1076.05 53.45 1075.25 52.4 1074.3 51.35 1074.75 49.85 1075.1 48.6 1076.4 48.25 1076.95 47.9 1077.55 47.9 L1077.65 47.9 1078.8 48.25 Q1080.05 48.6 1080.4 49.85 1080.85 51.35 1079.95 52.4 1079 53.45 1079.15 53.75 1079.35 54.25 1079.7 54.1 L1080.75 53.3 M1113.95 37.35 L1117.05 34.1 1119.6 31.25 1122.35 34.1 1125.35 37.35 Q1126.7 39.2 1125.9 40.8 1125 42.75 1122.6 42.5 L1120.3 41.95 1120.75 43.55 Q1121.1 44.35 1122 45.15 L1117.3 45.15 1118.55 43.55 1119 41.95 1116.85 42.5 Q1114.3 42.75 1113.4 40.8 1112.6 39.2 1113.95 37.35 M1104.9 48.25 Q1105.45 47.9 1105.9 47.9 L1106.05 47.9 1107.2 48.25 Q1108.45 48.6 1108.8 49.85 1109.25 51.35 1108.35 52.4 1107.5 53.45 1107.65 53.75 1107.75 54.25 1108.1 54.1 L1109.25 53.3 Q1110.4 52.6 1111.3 53.55 1112.25 54.35 1112.35 55.85 L1112.1 57.7 Q1111.3 59.5 1109.6 59.65 1108.45 59.65 1107.85 58.7 L1107.4 57.7 Q1107.3 57.55 1107.05 57.7 L1106.85 57.9 Q1106.7 58.5 1106.95 59.15 L1108.1 61.45 1103.85 61.45 1105.1 59.15 Q1105.35 58.6 1105.1 57.9 1104.9 57.2 1104.65 57.7 1104.2 59.75 1102.35 59.65 1100.75 59.5 1099.8 57.7 L1099.6 55.85 Q1099.7 54.35 1100.65 53.55 1102.1 52.15 1103.95 54.1 L1104.4 53.75 Q1104.55 53.45 1103.6 52.4 1102.7 51.35 1103.15 49.85 1103.5 48.6 1104.9 48.25 M1093.95 66.65 L1096.85 69.85 Q1098.2 71.6 1097.5 73.2 1096.6 75.15 1094.1 75.05 L1091.9 74.45 1092.25 76.05 1093.6 77.7 1088.9 77.7 1090.15 76.05 1090.65 74.45 1088.35 75.05 Q1085.9 75.15 1085 73.2 1084.2 71.6 1085.55 69.85 L1088.65 66.65 1091.2 63.75 1093.95 66.65 M1119.6 63.75 L1122.35 66.65 1125.35 69.85 Q1126.7 71.6 1125.9 73.2 1125 75.15 1122.6 75.05 L1120.3 74.45 1120.75 76.05 Q1121.1 76.75 1122 77.7 L1117.3 77.7 1118.55 76.05 1119 74.45 1116.85 75.05 Q1114.3 75.15 1113.4 73.2 1112.6 71.6 1113.95 69.85 L1117.05 66.65 1119.6 63.75 M1112.35 88.35 L1112.1 90.1 Q1111.3 92.05 1109.6 92.05 1108.45 92.15 1107.85 91.1 L1107.4 90.1 Q1107.3 89.95 1107.05 90.1 L1106.85 90.3 Q1106.7 91 1106.95 91.6 L1108.1 94 1103.85 94 1105.1 91.6 Q1105.35 91 1105.1 90.3 1104.9 89.75 1104.65 90.1 1104.2 92.25 1102.35 92.05 1100.75 92.05 1099.8 90.1 L1099.6 88.35 Q1099.7 86.85 1100.65 85.95 1102.1 84.7 1103.95 86.55 L1104.4 86.3 Q1104.55 85.95 1103.6 84.9 1102.7 83.9 1103.15 82.4 1103.5 81.1 1104.9 80.65 L1105.9 80.45 1106.05 80.45 1107.2 80.65 Q1108.45 81.1 1108.8 82.4 1109.25 83.9 1108.35 84.9 1107.5 85.95 1107.65 86.3 1107.75 86.65 1108.1 86.55 L1109.25 85.7 Q1110.4 85.15 1111.3 85.95 1112.25 86.85 1112.35 88.35 M1093.95 99.05 L1096.85 102.25 Q1098.2 104.1 1097.5 105.7 1096.6 107.65 1094.1 107.55 L1091.9 106.85 1092.25 108.5 1093.6 110.2 1088.9 110.2 1090.15 108.5 1090.65 106.85 Q1089.6 107.45 1088.35 107.55 1085.9 107.65 1085 105.7 1084.2 104.1 1085.55 102.25 L1088.65 99.05 1091.2 96.3 1093.95 99.05 M1107.2 113.2 Q1108.45 113.55 1108.8 114.8 1109.25 116.4 1108.35 117.45 1107.5 118.35 1107.65 118.7 1107.75 119.15 1108.1 119.05 L1109.25 118.25 Q1110.4 117.65 1111.3 118.5 1112.25 119.3 1112.35 120.75 L1112.1 122.6 Q1111.3 124.55 1109.6 124.55 1108.45 124.55 1107.85 123.65 L1107.4 122.6 1107.05 122.6 1106.85 122.85 Q1106.7 123.4 1106.95 124.1 L1108.1 126.5 1103.85 126.5 1105.1 124.1 Q1105.35 123.55 1105.1 122.85 1104.9 122.25 1104.65 122.6 1104.2 124.7 1102.35 124.55 1100.75 124.55 1099.8 122.6 L1099.6 120.75 Q1099.7 119.3 1100.65 118.5 1102.1 117.1 1103.95 119.05 L1104.4 118.7 Q1104.55 118.35 1103.6 117.45 1102.7 116.4 1103.15 114.8 1103.5 113.55 1104.9 113.2 L1105.9 112.95 1106.05 112.95 1107.2 113.2 M1125.35 102.25 Q1126.7 104.1 1125.9 105.7 1125 107.65 1122.6 107.55 L1120.3 106.85 1120.75 108.5 Q1121.1 109.3 1122 110.2 L1117.3 110.2 1118.55 108.5 1119 106.85 Q1118 107.45 1116.85 107.55 1114.3 107.65 1113.4 105.7 1112.6 104.1 1113.95 102.25 L1117.05 99.05 1119.6 96.3 1122.35 99.05 1125.35 102.25 M1077.65 80.45 L1078.8 80.65 Q1080.05 81.1 1080.4 82.4 1080.85 83.9 1079.95 84.9 1079 85.95 1079.15 86.3 1079.35 86.65 1079.7 86.55 L1080.75 85.7 Q1081.9 85.15 1082.8 85.95 1083.85 86.85 1083.95 88.35 L1083.75 90.1 Q1082.95 92.05 1081.2 92.05 1080.05 92.15 1079.35 91.1 L1078.9 90.1 Q1078.8 89.95 1078.7 90.1 L1078.45 90.3 Q1078.2 91 1078.55 91.6 1078.55 91.95 1079.7 94 L1075.45 94 1076.6 91.6 Q1076.95 91 1076.7 90.3 1076.5 89.75 1076.15 90.1 1075.8 92.25 1073.95 92.05 1072.35 92.05 1071.45 90.1 1071.2 89.5 1071.2 88.35 1071.3 86.85 1072.25 85.95 1073.75 84.7 1075.45 86.55 1075.8 86.65 1075.9 86.3 1076.05 85.95 1075.25 84.9 1074.3 83.9 1074.75 82.4 1075.1 81.1 1076.4 80.65 L1077.55 80.45 1077.65 80.45 M1076.4 113.2 Q1076.95 112.85 1077.55 112.95 L1077.65 112.95 1078.8 113.2 Q1080.05 113.55 1080.4 114.8 1080.85 116.4 1079.95 117.45 1079 118.35 1079.15 118.7 1079.35 119.15 1079.7 119.05 L1080.75 118.25 Q1081.9 117.65 1082.8 118.5 1083.85 119.3 1083.95 120.75 L1083.75 122.6 Q1082.95 124.55 1081.2 124.55 1080.05 124.55 1079.35 123.65 L1078.9 122.6 1078.7 122.6 1078.45 122.85 Q1078.2 123.4 1078.55 124.1 1078.55 124.45 1079.7 126.5 L1075.45 126.5 1076.6 124.1 Q1076.95 123.55 1076.7 122.85 1076.5 122.25 1076.15 122.6 1075.8 124.7 1073.95 124.55 1072.35 124.55 1071.45 122.6 1071.2 121.9 1071.2 120.75 1071.3 119.3 1072.25 118.5 1073.75 117.1 1075.45 119.05 L1075.9 118.7 Q1076.05 118.35 1075.25 117.45 1074.3 116.4 1074.75 114.8 1075.1 113.55 1076.4 113.2 M1085 138.15 Q1084.2 136.65 1085.55 134.8 L1088.65 131.6 1091.2 128.7 1093.95 131.6 1096.85 134.8 Q1098.2 136.65 1097.5 138.15 1096.6 140.1 1094.1 139.95 L1091.9 139.4 1092.25 141 1093.6 142.6 1088.9 142.6 1090.15 141 1090.65 139.4 1088.35 139.95 Q1085.9 140.1 1085 138.15 M1080.75 150.75 Q1081.9 150.1 1082.8 151 1083.85 151.8 1083.95 153.3 L1083.75 155 Q1082.95 157 1081.2 157.1 1080.05 157.1 1079.35 156.15 L1078.9 155 1078.7 155 1078.45 155.35 Q1078.2 155.95 1078.55 156.65 1078.55 157 1079.7 158.95 L1075.45 158.95 1076.6 156.65 Q1076.95 156.05 1076.7 155.35 1076.5 154.7 1076.15 155 1075.8 157.2 1073.95 157.1 1072.35 157 1071.45 155 1071.2 154.45 1071.2 153.3 1071.3 151.8 1072.25 151 1073.75 149.6 1075.45 151.55 L1075.9 151.25 Q1076.05 150.9 1075.25 149.85 1074.3 148.8 1074.75 147.3 1075.1 146.05 1076.4 145.6 L1077.55 145.35 1077.65 145.35 1078.8 145.6 Q1080.05 146.05 1080.4 147.3 1080.85 148.8 1079.95 149.85 1079 150.9 1079.15 151.25 1079.35 151.55 1079.7 151.55 L1080.75 150.75 M1113.95 134.8 L1117.05 131.6 1119.6 128.7 1122.35 131.6 1125.35 134.8 Q1126.7 136.65 1125.9 138.15 1125 140.1 1122.6 139.95 L1120.3 139.4 1120.75 141 Q1121.1 141.8 1122 142.6 L1117.3 142.6 1118.55 141 1119 139.4 1116.85 139.95 Q1114.3 140.1 1113.4 138.15 1112.6 136.65 1113.95 134.8 M1105.9 145.35 L1106.05 145.35 1107.2 145.6 Q1108.45 146.05 1108.8 147.3 1109.25 148.8 1108.35 149.85 1107.5 150.9 1107.65 151.25 L1108.1 151.55 1109.25 150.75 Q1110.4 150.1 1111.3 151 1112.25 151.8 1112.35 153.3 L1112.1 155 Q1111.3 157 1109.6 157.1 1108.45 157.1 1107.85 156.15 L1107.4 155 1107.05 155 1106.85 155.35 Q1106.7 155.95 1106.95 156.65 L1108.1 158.95 1103.85 158.95 1105.1 156.65 Q1105.35 156.05 1105.1 155.35 1104.9 154.7 1104.65 155 1104.2 157.2 1102.35 157.1 1100.75 157 1099.8 155 L1099.6 153.3 Q1099.7 151.8 1100.65 151 1102.1 149.6 1103.95 151.55 L1104.4 151.25 Q1104.55 150.9 1103.6 149.85 1102.7 148.8 1103.15 147.3 1103.5 146.05 1104.9 145.6 L1105.9 145.35 M1093.95 164.05 L1096.85 167.25 Q1098.2 169.1 1097.5 170.6 1096.6 172.55 1094.1 172.4 L1091.9 171.85 1092.25 173.45 1093.6 175.05 1088.9 175.05 1090.15 173.45 1090.65 171.85 1088.35 172.4 Q1085.9 172.55 1085 170.6 1084.2 169.1 1085.55 167.25 L1088.65 164.05 1091.2 161.15 1093.95 164.05 M1119.6 161.15 L1122.35 164.05 1125.35 167.25 Q1126.7 169.1 1125.9 170.6 1125 172.55 1122.6 172.4 L1120.3 171.85 1120.75 173.45 Q1121.1 174.25 1122 175.05 L1117.3 175.05 1118.55 173.45 1119 171.85 1116.85 172.4 Q1114.3 172.55 1113.4 170.6 1112.6 169.1 1113.95 167.25 L1117.05 164.05 1119.6 161.15"/>
    <path stroke="none" fill="#FFFFFF" fill-opacity="0.10196078431372549" d="M1155.45 34.7 Q1155.45 33.3 1156.25 32.25 1157.3 31 1158.9 31 1160.5 31 1161.55 32.25 1162.35 33.2 1162.45 34.45 1162.45 33.2 1163.25 32.25 1164.3 31 1165.9 31 1167.5 31 1168.55 32.25 1169.35 33.3 1169.35 34.7 1169.35 35.7 1168.8 36.85 L1167.15 39.05 Q1163.35 42.85 1162.45 44.9 1161.4 42.85 1157.65 39.05 1156.8 38.15 1156.15 36.85 1155.45 35.7 1155.45 34.7 M1142.8 22.05 L1148.1 15.15 1153.4 22.05 1148.1 28.95 1142.8 22.05 M1140.05 32.25 Q1140.95 33.3 1140.95 34.7 1140.95 35.7 1140.3 36.85 L1138.8 39.05 Q1135 42.85 1133.95 44.9 1132.9 42.85 1129.25 39.05 1128.3 38.15 1127.65 36.85 1126.95 35.7 1126.95 34.7 1126.95 33.3 1127.85 32.25 1128.9 31 1130.5 31 1132.1 31 1133.15 32.25 1133.95 33.2 1133.95 34.45 1134.05 33.2 1134.85 32.25 1135.8 31 1137.4 31 1139 31 1140.05 32.25 M1148.1 47.55 L1153.4 54.45 1148.1 61.45 1142.8 54.45 1148.1 47.55 M1134.85 64.65 Q1135.8 63.5 1137.4 63.5 1139 63.5 1140.05 64.8 1140.95 65.8 1140.95 67.1 1140.95 68.1 1140.3 69.4 L1138.8 71.55 Q1135 75.35 1133.95 77.45 1132.9 75.35 1129.25 71.55 1128.3 70.65 1127.65 69.4 1126.95 68.1 1126.95 67.1 1126.95 65.8 1127.85 64.8 1128.9 63.5 1130.5 63.5 1132.1 63.5 1133.15 64.65 1133.95 65.7 1133.95 66.95 1134.05 65.7 1134.85 64.65 M1158.9 63.5 Q1160.5 63.5 1161.55 64.65 1162.35 65.7 1162.45 66.95 1162.45 65.7 1163.25 64.65 1164.3 63.5 1165.9 63.5 1167.5 63.5 1168.55 64.8 1169.35 65.8 1169.35 67.1 1169.35 68.1 1168.8 69.4 L1167.15 71.55 Q1163.35 75.35 1162.45 77.45 1161.4 75.35 1157.65 71.55 L1156.15 69.4 Q1155.45 68.1 1155.45 67.1 1155.45 65.8 1156.25 64.8 1157.3 63.5 1158.9 63.5 M1148.1 80.05 L1153.4 86.95 1148.1 93.85 1142.8 86.95 1148.1 80.05 M1140.3 101.9 L1138.8 103.95 Q1135 107.9 1133.95 109.95 1132.9 107.9 1129.25 103.95 L1127.65 101.9 Q1126.95 100.65 1126.95 99.6 1126.95 98.25 1127.85 97.2 1128.9 96.05 1130.5 96.05 1132.1 96.05 1133.15 97.2 1133.95 98.1 1133.95 99.5 1134.05 98.1 1134.85 97.2 1135.8 96.05 1137.4 96.05 1139 96.05 1140.05 97.2 1140.95 98.25 1140.95 99.6 1140.95 100.65 1140.3 101.9 M1168.55 97.2 Q1169.35 98.25 1169.35 99.6 1169.35 100.65 1168.8 101.9 L1167.15 103.95 Q1163.35 107.9 1162.45 109.95 1161.4 107.9 1157.65 103.95 L1156.15 101.9 Q1155.45 100.65 1155.45 99.6 1155.45 98.25 1156.25 97.2 1157.3 96.05 1158.9 96.05 1160.5 96.05 1161.55 97.2 1162.35 98.1 1162.45 99.5 1162.45 98.1 1163.25 97.2 1164.3 96.05 1165.9 96.05 1167.5 96.05 1168.55 97.2 M1155.45 132.15 Q1155.45 130.75 1156.25 129.7 1157.3 128.45 1158.9 128.45 1160.5 128.45 1161.55 129.7 1162.35 130.65 1162.45 131.9 1162.45 130.65 1163.25 129.7 1164.3 128.45 1165.9 128.45 1167.5 128.45 1168.55 129.7 1169.35 130.75 1169.35 132.15 1169.35 133.05 1168.8 134.3 L1167.15 136.5 Q1163.35 140.3 1162.45 142.35 1161.4 140.3 1157.65 136.5 1156.8 135.6 1156.15 134.3 1155.45 133.05 1155.45 132.15 M1142.8 119.5 L1148.1 112.6 1153.4 119.5 1148.1 126.4 1142.8 119.5 M1134.85 129.7 Q1135.8 128.45 1137.4 128.45 1139 128.45 1140.05 129.7 1140.95 130.75 1140.95 132.15 1140.95 133.05 1140.3 134.3 L1138.8 136.5 Q1135 140.3 1133.95 142.35 1132.9 140.3 1129.25 136.5 1128.3 135.6 1127.65 134.3 1126.95 133.05 1126.95 132.15 1126.95 130.75 1127.85 129.7 1128.9 128.45 1130.5 128.45 1132.1 128.45 1133.15 129.7 1133.95 130.65 1133.95 131.9 1134.05 130.65 1134.85 129.7 M1148.1 145 L1153.4 151.9 1148.1 158.9 1142.8 151.9 1148.1 145 M1134.85 162.15 Q1135.8 160.9 1137.4 160.9 1139 160.9 1140.05 162.15 1140.95 163.2 1140.95 164.6 1140.95 165.5 1140.3 166.75 L1138.8 168.95 Q1135 172.75 1133.95 174.8 1132.9 172.75 1129.25 168.95 1128.3 168.05 1127.65 166.75 1126.95 165.5 1126.95 164.6 1126.95 163.2 1127.85 162.15 1128.9 160.9 1130.5 160.9 1132.1 160.9 1133.15 162.15 1133.95 163.1 1133.95 164.35 1134.05 163.1 1134.85 162.15 M1156.25 162.15 Q1157.3 160.9 1158.9 160.9 1160.5 160.9 1161.55 162.15 1162.35 163.1 1162.45 164.35 1162.45 163.1 1163.25 162.15 1164.3 160.9 1165.9 160.9 1167.5 160.9 1168.55 162.15 1169.35 163.2 1169.35 164.6 1169.35 165.5 1168.8 166.75 L1167.15 168.95 Q1163.35 172.75 1162.45 174.8 1161.4 172.75 1157.65 168.95 1156.8 168.05 1156.15 166.75 1155.45 165.5 1155.45 164.6 1155.45 163.2 1156.25 162.15 M1073.6 31 Q1075.25 31 1076.25 32.25 1077.05 33.2 1077.2 34.45 1077.2 33.2 1078 32.25 1079 31 1080.65 31 1082.25 31 1083.25 32.25 1084.1 33.3 1084.1 34.7 1084.1 35.7 1083.5 36.85 1082.8 38.15 1081.9 39.05 1078.1 42.85 1077.2 44.9 1076.15 42.85 1072.35 39.05 L1070.85 36.85 Q1070.05 35.7 1070.05 34.7 1070.05 33.3 1071 32.25 1072 31 1073.6 31 M1073.6 63.5 Q1075.25 63.5 1076.25 64.65 1077.05 65.7 1077.2 66.95 1077.2 65.7 1078 64.65 1079 63.5 1080.65 63.5 1082.25 63.5 1083.25 64.8 1084.1 65.8 1084.1 67.1 1084.1 68.1 1083.5 69.4 1082.8 70.65 1081.9 71.55 1078.1 75.35 1077.2 77.45 1076.15 75.35 1072.35 71.55 1071.55 70.65 1070.85 69.4 1070.05 68.1 1070.05 67.1 1070.05 65.8 1071 64.8 1072 63.5 1073.6 63.5 M1114.3 22.05 L1119.7 15.15 1125 22.05 1119.7 28.95 1114.3 22.05 M1110.3 39.05 Q1106.6 42.85 1105.55 44.9 1104.55 42.85 1100.75 39.05 1099.95 38.15 1099.25 36.85 1098.55 35.7 1098.55 34.7 1098.55 33.3 1099.5 32.25 1100.4 31 1102.1 31 1103.75 31 1104.65 32.25 1105.45 33.2 1105.55 34.45 1105.55 33.2 1106.5 32.25 1107.4 31 1109 31 1110.65 31 1111.65 32.25 1112.6 33.3 1112.6 34.7 1112.6 35.7 1111.9 36.85 1111.2 38.15 1110.3 39.05 M1091.2 28.95 L1085.9 22.05 1091.2 15.15 1096.6 22.05 1091.2 28.95 M1096.6 54.45 L1091.2 61.45 1085.9 54.45 1091.2 47.55 1096.6 54.45 M1104.65 64.65 Q1105.45 65.7 1105.55 66.95 1105.55 65.7 1106.5 64.65 1107.4 63.5 1109 63.5 1110.65 63.5 1111.65 64.8 1112.6 65.8 1112.6 67.1 1112.6 68.1 1111.9 69.4 1111.2 70.65 1110.3 71.55 1106.6 75.35 1105.55 77.45 1104.55 75.35 1100.75 71.55 L1099.25 69.4 Q1098.55 68.1 1098.55 67.1 1098.55 65.8 1099.5 64.8 1100.4 63.5 1102.1 63.5 1103.75 63.5 1104.65 64.65 M1119.7 47.55 L1125 54.45 1119.7 61.45 1114.3 54.45 1119.7 47.55 M1119.7 80.05 L1125 86.95 1119.7 93.85 1114.3 86.95 1119.7 80.05 M1096.6 86.95 L1091.2 93.85 1085.9 86.95 1091.2 80.05 1096.6 86.95 M1109 96.05 Q1110.65 96.05 1111.65 97.2 1112.6 98.25 1112.6 99.6 1112.6 100.65 1111.9 101.9 L1110.3 103.95 Q1106.6 107.9 1105.55 109.95 1104.55 107.9 1100.75 103.95 L1099.25 101.9 Q1098.55 100.65 1098.55 99.6 1098.55 98.25 1099.5 97.2 1100.4 96.05 1102.1 96.05 1103.75 96.05 1104.65 97.2 1105.45 98.1 1105.55 99.5 1105.55 98.1 1106.5 97.2 1107.4 96.05 1109 96.05 M1083.25 97.2 Q1084.1 98.25 1084.1 99.6 1084.1 100.65 1083.5 101.9 L1081.9 103.95 Q1078.1 107.9 1077.2 109.95 1076.15 107.9 1072.35 103.95 L1070.85 101.9 Q1070.05 100.65 1070.05 99.6 1070.05 98.25 1071 97.2 1072 96.05 1073.6 96.05 1075.25 96.05 1076.25 97.2 1077.05 98.1 1077.2 99.5 1077.2 98.1 1078 97.2 1079 96.05 1080.65 96.05 1082.25 96.05 1083.25 97.2 M1071 129.7 Q1072 128.45 1073.6 128.45 1075.25 128.45 1076.25 129.7 1077.05 130.65 1077.2 131.9 1077.2 130.65 1078 129.7 1079 128.45 1080.65 128.45 1082.25 128.45 1083.25 129.7 1084.1 130.75 1084.1 132.15 1084.1 133.05 1083.5 134.3 1082.8 135.6 1081.9 136.5 1078.1 140.3 1077.2 142.35 1076.15 140.3 1072.35 136.5 L1070.85 134.3 Q1070.05 133.05 1070.05 132.15 1070.05 130.75 1071 129.7 M1071 162.15 Q1072 160.9 1073.6 160.9 1075.25 160.9 1076.25 162.15 1077.05 163.1 1077.2 164.35 1077.2 163.1 1078 162.15 1079 160.9 1080.65 160.9 1082.25 160.9 1083.25 162.15 1084.1 163.2 1084.1 164.6 1084.1 165.5 1083.5 166.75 1082.8 168.05 1081.9 168.95 1078.1 172.75 1077.2 174.8 1076.15 172.75 1072.35 168.95 L1070.85 166.75 Q1070.05 165.5 1070.05 164.6 1070.05 163.2 1071 162.15 M1114.3 119.5 L1119.7 112.6 1125 119.5 1119.7 126.4 1114.3 119.5 M1110.3 136.5 Q1106.6 140.3 1105.55 142.35 1104.55 140.3 1100.75 136.5 1099.95 135.6 1099.25 134.3 1098.55 133.05 1098.55 132.15 1098.55 130.75 1099.5 129.7 1100.4 128.45 1102.1 128.45 1103.75 128.45 1104.65 129.7 1105.45 130.65 1105.55 131.9 1105.55 130.65 1106.5 129.7 1107.4 128.45 1109 128.45 1110.65 128.45 1111.65 129.7 1112.6 130.75 1112.6 132.15 1112.6 133.05 1111.9 134.3 1111.2 135.6 1110.3 136.5 M1091.2 126.4 L1085.9 119.5 1091.2 112.6 1096.6 119.5 1091.2 126.4 M1096.6 151.9 L1091.2 158.9 1085.9 151.9 1091.2 145 1096.6 151.9 M1099.5 162.15 Q1100.4 160.9 1102.1 160.9 1103.75 160.9 1104.65 162.15 1105.45 163.1 1105.55 164.35 1105.55 163.1 1106.5 162.15 1107.4 160.9 1109 160.9 1110.65 160.9 1111.65 162.15 1112.6 163.2 1112.6 164.6 1112.6 165.5 1111.9 166.75 1111.2 168.05 1110.3 168.95 1106.6 172.75 1105.55 174.8 1104.55 172.75 1100.75 168.95 1099.95 168.05 1099.25 166.75 1098.55 165.5 1098.55 164.6 1098.55 163.2 1099.5 162.15 M1119.7 145 L1125 151.9 1119.7 158.9 1114.3 151.9 1119.7 145"/>
    <path stroke="none" fill="#BBBBBB" d="M1333 2 L1207 2 Q1202 2 1202 7 L1202 183 Q1202 188 1207 188 L1333 188 Q1338 188 1338 183 L1338 7 Q1338 2 1333 2 M1340 7 L1340 183 Q1340 190 1333 190 L1207 190 Q1200 190 1200 183 L1200 7 Q1200 0 1207 0 L1333 0 Q1340 0 1340 7"/>
    <path stroke="none" fill="#FFFFFF" d="M1333 2 Q1338 2 1338 7 L1338 183 Q1338 188 1333 188 L1207 188 Q1202 188 1202 183 L1202 7 Q1202 2 1207 2 L1333 2 M1333 183 L1333 7 1207 7 1207 183 1333 183"/>
    <path stroke="none" fill="#11637E" d="M1333 183 L1207 183 1207 7 1333 7 1333 183"/>
    <path stroke="none" fill="#000000" fill-opacity="0.2" d="M1296.1 115.75 Q1294.4 119.5 1289.55 119 L1285.3 117.95 1285.95 121.05 Q1286.85 122.6 1288.6 124.15 L1279.5 124.15 Q1281.25 122.6 1281.9 121.05 L1282.85 117.95 Q1280.85 118.8 1278.45 119 1273.7 119.5 1271.95 115.75 1270.4 112.65 1273 109.05 L1279 102.8 1283.95 97.25 1289.25 102.8 Q1294.55 108.4 1294.85 109.05 1297.45 112.65 1296.1 115.75 M1257.55 66.8 L1257.75 66.8 1259.95 67.3 Q1262.4 68 1263.05 70.4 1263.95 73.5 1262.2 75.5 1260.35 77.45 1260.65 77.95 1261.05 78.8 1261.7 78.6 L1263.75 77.05 Q1265.95 75.9 1267.7 77.45 1269.75 79 1269.9 81.9 1269.9 84.4 1269.55 85.45 1268 89.25 1264.6 89.25 1262.4 89.45 1261.05 87.5 L1260.15 85.45 Q1259.95 85.3 1259.75 85.45 1259.5 85.45 1259.3 85.95 1258.8 87 1259.5 88.35 1259.5 89.05 1261.7 93 L1253.5 93 1255.7 88.35 Q1256.4 87.3 1255.9 85.95 1255.5 84.8 1254.85 85.45 1254.15 89.45 1250.6 89.25 1247.5 89.25 1245.75 85.45 1245.25 84.1 1245.25 81.9 1245.45 79 1247.3 77.45 1250.2 75.05 1253.5 78.6 1254.15 78.8 1254.35 77.95 1254.65 77.45 1253.1 75.5 1251.25 73.5 1252.15 70.4 1252.8 68 1255.3 67.3 1256.4 66.6 1257.55 66.8"/>
    <path stroke="none" fill="#FFFFFF" fill-opacity="0.10196078431372549" d="M1256.85 103.45 Q1256.85 101.05 1258.4 99.2 1260.35 96.8 1263.55 96.8 1266.65 96.8 1268.55 99.2 1270.2 101.25 1270.2 103.95 1270.2 105.85 1269.05 108.1 1267.7 110.6 1265.95 112.35 1258.6 119.7 1256.85 123.65 1254.85 119.7 1247.5 112.35 1245.95 110.6 1244.6 108.1 1243.05 105.85 1243.05 103.95 1243.05 101.25 1244.9 99.2 1246.8 96.8 1249.9 96.8 1253.1 96.8 1255.05 99.2 1256.6 101.05 1256.85 103.45 M1273.7 79.5 L1283.95 66.15 1294.4 79.5 1283.95 92.8 1273.7 79.5"/>
  </g>
</svg>